<svg id="Illustrations" xmlns="http://www.w3.org/2000/svg" width="480" height="480" viewBox="0 0 480 480"><path d="M188.65,215.96s-24.46-15.85-56.35-15.65" fill="none" stroke="#2c3b5e" stroke-miterlimit="10" stroke-width="3"/><polyline points="204.89 258.42 232.67 266.25 260.45 383.25 312.1 371.9 282.37 266.25" fill="none" stroke="#2c3b5e" stroke-miterlimit="10" stroke-width="3"/><polyline points="309.99 364.4 350.06 355.86 317.58 260.38" fill="none" stroke="#2c3b5e" stroke-miterlimit="10" stroke-width="3"/><path d="M279.39,219.65c.56,3.41-1.29,6.84-3.86,9.14-2.57,2.31-5.79,3.72-8.9,5.22-3.11,1.5-6.25,3.19-8.43,5.87-2.18,2.68-3.19,6.58-1.61,9.65" fill="none" stroke="#2c3b5e" stroke-miterlimit="10" stroke-width="3"/><path d="M311.28,224.43l-5.22,2.81c-1.69.91-3.4,1.84-4.78,3.17-2.36,2.3-3.52,7.76-3.01,11.02" fill="none" stroke="#2c3b5e" stroke-miterlimit="10" stroke-width="3"/><path d="M306.39,243.4c-5.29-2.18-11.31-2.55-16.82-1.03-1.58.44-3.16,1.05-4.36,2.17-1.2,1.12-1.94,2.84-1.54,4.43.65,2.55,3.69,3.56,6.28,3.98,7.12,1.16,14.43,1.06,21.52-.3,4.95-.95,9.9-2.57,13.82-5.73,4.26-3.44,6.81-8.66,7.58-14.09,1.44-10.11-5.13-18.02-8.67-22.21" fill="none" stroke="#2c3b5e" stroke-miterlimit="10" stroke-width="3"/><path d="M263.52,242.05s-3.2,3.26-1.5,8.48" fill="none" stroke="#2c3b5e" stroke-miterlimit="10" stroke-width="3"/><path d="M268.65,243.15s-3.2,3.26-1.5,8.48" fill="none" stroke="#2c3b5e" stroke-miterlimit="10" stroke-width="3"/><path d="M212.84,182.77s-10.96,17.22,0,28.17c10.96,10.96,22.43,4.43,29.74-1.57,7.3-6,18.94-2.61,18.94-2.61" fill="none" stroke="#2c3b5e" stroke-miterlimit="10" stroke-width="3"/><path d="M209.71,159.03s-31.51,8.19-29.58,52.36" fill="none" stroke="#2c3b5e" stroke-miterlimit="10" stroke-width="3"/><path d="M204.89,235.65s29.87,8.05,47.61-2.72" fill="none" stroke="#2c3b5e" stroke-miterlimit="10" stroke-width="3"/><path d="M249.5,213.94s7.7-2.09,15.78,1.17" fill="none" stroke="#2c3b5e" stroke-miterlimit="10" stroke-width="3"/><path d="M248.71,220.65s10.57-1.79,16.04,2.78" fill="none" stroke="#2c3b5e" stroke-miterlimit="10" stroke-width="3"/><path d="M248.71,227.38s6.65-2.22,11.09,1.43" fill="none" stroke="#2c3b5e" stroke-miterlimit="10" stroke-width="3"/><path d="M301.13,202.39c-11.15,3.92-26.34,5.74-37.61-6.38-17.59-18.93,9.26-35.41,9.26-35.41l.78-12.72,11.74,9.98s10.55-3.28,20.41,5.53l12.66-4.36-6.26,11.15s9.2,9.39,6.26,20.15" fill="none" stroke="#2c3b5e" stroke-miterlimit="10" stroke-width="3"/><path d="M263.52,196.01s-5.09,3.21-7.7,9.33" fill="none" stroke="#2c3b5e" stroke-miterlimit="10" stroke-width="3"/><path d="M300.76,206.94s11.15-3.11,16.04-9.56" fill="none" stroke="#2c3b5e" stroke-miterlimit="10" stroke-width="3"/><path d="M304.72,213.85s11.69-3.39,17.56-11.69" fill="none" stroke="#2c3b5e" stroke-miterlimit="10" stroke-width="3"/><path d="M316.02,216.86c6.85-4.22,13.7-11.52,13.7-11.52-.59-15.13-12.91-13.83-12.91-13.83,0,0-4.21,4.7-10.27,7.73" fill="none" stroke="#2c3b5e" stroke-miterlimit="10" stroke-width="3"/><path d="M328.55,241.45c3.58,1.17,6.17,4.42,7.47,7.94,1.31,3.53,1.53,7.35,1.73,11.11.2,3.76.41,7.58,1.69,11.12,2.55,7.01,9.58,12.15,17.03,12.47,1.7.07,3.46-.08,5.06.51s3,2.23,2.58,3.88c-.48,1.89-2.82,2.53-4.77,2.6-6.14.23-12.35-1.88-17.08-5.81-4.73-3.93-7.94-9.64-8.84-15.72-.62-4.2-.18-8.51-.91-12.69-.73-4.18-3.05-8.51-7.09-9.81" fill="none" stroke="#2c3b5e" stroke-miterlimit="10" stroke-width="3"/><path d="M275.63,189.33c1.23.47,2.64.42,3.83-.14s2.13-1.61,2.56-2.85" fill="none" stroke="#2c3b5e" stroke-miterlimit="10" stroke-width="3"/><path d="M287.45,191.48s-5.67.61-4.99-5.55" fill="none" stroke="#2c3b5e" stroke-miterlimit="10" stroke-width="3"/><line x1="298.31" y1="185.44" x2="312.4" y2="182.02" fill="none" stroke="#2c3b5e" stroke-miterlimit="10" stroke-width="3"/><line x1="299" y1="190.63" x2="309.37" y2="192" fill="none" stroke="#2c3b5e" stroke-miterlimit="10" stroke-width="3"/><line x1="267.4" y1="182.02" x2="255.22" y2="174.19" fill="none" stroke="#2c3b5e" stroke-miterlimit="10" stroke-width="3"/><line x1="264.95" y1="186.81" x2="253.9" y2="188.72" fill="none" stroke="#2c3b5e" stroke-miterlimit="10" stroke-width="3"/><path d="M271.75,175.85c1.09,1.53,2.82,2.59,4.67,2.89s3.82-.19,5.34-1.3" fill="none" stroke="#2c3b5e" stroke-miterlimit="10" stroke-width="3"/><path d="M286.42,177.61c1.26,1.62,3.26,2.63,5.3,2.7s4.11-.82,5.47-2.35" fill="none" stroke="#2c3b5e" stroke-miterlimit="10" stroke-width="3"/><path d="M214.04,140.14c-2.24.47-4.69-.14-6.45-1.62-1.76-1.48-2.78-3.78-2.71-6.07.04-1.24.41-2.5,1.24-3.42s2.17-1.43,3.36-1.07c2.04.61,2.75,3.24,4.56,4.36,1.55.96,3.7.57,5.08-.63,1.38-1.2,2.07-3.04,2.25-4.86s-.12-3.65-.4-5.45c3.62,1.21,8.1.48,11.4-1.45s5.71-5.31,6.44-9.05c4.85,3.4,11.69,4.53,17.52,3.52,4.34,12.18,4.75,25.61.46,37.8-1.17,3.31-2.77,6.67-5.63,8.71-3.01,2.14-6.94,2.47-10.63,2.23-9.86-.64-19.43-4.98-26.41-11.96" fill="none" stroke="#2c3b5e" stroke-miterlimit="10" stroke-width="3"/><path d="M242.67,131.51l4.83,10.83s-5.35,4.43-12,2.74" fill="none" stroke="#2c3b5e" stroke-miterlimit="10" stroke-width="3"/><path d="M232.35,150.94s7.36,4.57,12.97,1.57" fill="none" stroke="#2c3b5e" stroke-miterlimit="10" stroke-width="3"/><path d="M228.5,131.51s4.64,4.04,10.34,0" fill="none" stroke="#2c3b5e" stroke-miterlimit="10" stroke-width="3"/><path d="M248.73,131.78s4.64,4.04,10.34,0" fill="none" stroke="#2c3b5e" stroke-miterlimit="10" stroke-width="3"/><path d="M283.2,148.63c1.94-3.26,1.4-7.52-.34-10.89s-4.53-6.06-7.18-8.77c-2.65-2.71-5.27-5.62-6.56-9.19-1.54-4.26-1-8.96-1.7-13.43-1.33-8.49-7.5-16.06-15.55-19.07-8.05-3.01-17.67-1.36-24.25,4.18-6.36-4.07-14.38-3.77-21.3-.74-6.92,3.03-12.14,9.66-13.46,17.09-1.05,5.92.07,12.62-3.52,17.44-2.1,2.82-5.48,4.44-7.75,7.12-2.31,2.73-3.3,6.52-2.63,10.03.67,3.51,3,6.67,6.16,8.35-2.13.55-3.37,2.96-4.06,5.05-1.91,5.8-.92,12.47,2.59,17.47" fill="none" stroke="#2c3b5e" stroke-miterlimit="10" stroke-width="3"/><path d="M160.47,193.47s3.72-66.13-30.72-66.52" fill="none" stroke="#2c3b5e" stroke-miterlimit="10" stroke-width="3"/><path d="M176.32,101.9c-1.17-.39-58.7-8.75-66.52,43.56s-1.17,162.2,3.13,166.93c4.3,4.73,56.74,23.9,56.74,23.9v-92.74s0-26.61,15.85-27.56c18.8-1.13,19.37,37.35,19.37,37.35v78.65" fill="none" stroke="#2c3b5e" stroke-miterlimit="10" stroke-width="3"/><line x1="170.97" y1="336.81" x2="246.88" y2="326.09" fill="none" stroke="#2c3b5e" stroke-miterlimit="10" stroke-width="3"/><path d="M300.76,379.34s12.11,4.7,18.19,14.87h-51.55l1.25-13.3" fill="none" stroke="#2c3b5e" stroke-miterlimit="10" stroke-width="3"/><path d="M355.64,368.38s12.11,4.7,18.19,14.87h-51.55l1.25-13.3" fill="none" stroke="#2c3b5e" stroke-miterlimit="10" stroke-width="3"/><polygon points="123.58 318.11 117.23 364.4 129.76 364.4 142.85 326.09 123.58 318.11" fill="#2c3b5e" stroke="#2c3b5e" stroke-miterlimit="10" stroke-width="3"/><polygon points="196.82 333.16 192.08 372.38 204.6 372.38 218.02 330.17 196.82 333.16" fill="#2c3b5e" stroke="#2c3b5e" stroke-miterlimit="10" stroke-width="3"/><path d="M181.38,193.47s15.2,10.04,26.59,2.54" fill="none" stroke="#2c3b5e" stroke-miterlimit="10" stroke-width="3"/><polyline points="301.8 133.57 313.5 133.57 304.72 145.46 318.12 145.46" fill="none" stroke="#2c3b5e" stroke-miterlimit="10" stroke-width="3"/><polyline points="320.5 121.69 335.6 121.69 324.26 137.04 341.57 137.04" fill="none" stroke="#2c3b5e" stroke-miterlimit="10" stroke-width="3"/><g><path d="M237.71,166.08c-.68,0-1.22.55-1.22,1.22s.55,1.22,1.22,1.22,1.22-.55,1.22-1.22-.55-1.22-1.22-1.22Z" fill="#2c3b5e"/><path d="M237.71,172.26c-.68,0-1.22.55-1.22,1.22s.55,1.22,1.22,1.22,1.22-.55,1.22-1.22-.55-1.22-1.22-1.22Z" fill="#2c3b5e"/><path d="M237.71,178.45c-.68,0-1.22.55-1.22,1.22s.55,1.22,1.22,1.22,1.22-.55,1.22-1.22-.55-1.22-1.22-1.22Z" fill="#2c3b5e"/><path d="M237.71,184.63c-.68,0-1.22.55-1.22,1.22s.55,1.22,1.22,1.22,1.22-.55,1.22-1.22-.55-1.22-1.22-1.22Z" fill="#2c3b5e"/><path d="M237.71,190.82c-.68,0-1.22.55-1.22,1.22s.55,1.22,1.22,1.22,1.22-.55,1.22-1.22-.55-1.22-1.22-1.22Z" fill="#2c3b5e"/><path d="M237.71,197c-.68,0-1.22.55-1.22,1.22s.55,1.22,1.22,1.22,1.22-.55,1.22-1.22-.55-1.22-1.22-1.22Z" fill="#2c3b5e"/><path d="M237.71,203.18c-.68,0-1.22.55-1.22,1.22s.55,1.22,1.22,1.22,1.22-.55,1.22-1.22-.55-1.22-1.22-1.22Z" fill="#2c3b5e"/><path d="M237.71,209.37c-.68,0-1.22.55-1.22,1.22s.55,1.22,1.22,1.22,1.22-.55,1.22-1.22-.55-1.22-1.22-1.22Z" fill="#2c3b5e"/><path d="M226.39,159.9c-.68,0-1.22.55-1.22,1.22s.55,1.22,1.22,1.22,1.22-.55,1.22-1.22-.55-1.22-1.22-1.22Z" fill="#2c3b5e"/><path d="M226.39,166.08c-.68,0-1.22.55-1.22,1.22s.55,1.22,1.22,1.22,1.22-.55,1.22-1.22-.55-1.22-1.22-1.22Z" fill="#2c3b5e"/><path d="M226.39,172.26c-.68,0-1.22.55-1.22,1.22s.55,1.22,1.22,1.22,1.22-.55,1.22-1.22-.55-1.22-1.22-1.22Z" fill="#2c3b5e"/><path d="M226.39,178.45c-.68,0-1.22.55-1.22,1.22s.55,1.22,1.22,1.22,1.22-.55,1.22-1.22-.55-1.22-1.22-1.22Z" fill="#2c3b5e"/><path d="M226.39,184.63c-.68,0-1.22.55-1.22,1.22s.55,1.22,1.22,1.22,1.22-.55,1.22-1.22-.55-1.22-1.22-1.22Z" fill="#2c3b5e"/><path d="M226.39,190.82c-.68,0-1.22.55-1.22,1.22s.55,1.22,1.22,1.22,1.22-.55,1.22-1.22-.55-1.22-1.22-1.22Z" fill="#2c3b5e"/><path d="M226.39,197c-.68,0-1.22.55-1.22,1.22s.55,1.22,1.22,1.22,1.22-.55,1.22-1.22-.55-1.22-1.22-1.22Z" fill="#2c3b5e"/><path d="M226.39,203.18c-.68,0-1.22.55-1.22,1.22s.55,1.22,1.22,1.22,1.22-.55,1.22-1.22-.55-1.22-1.22-1.22Z" fill="#2c3b5e"/><path d="M226.39,209.37c-.68,0-1.22.55-1.22,1.22s.55,1.22,1.22,1.22,1.22-.55,1.22-1.22-.55-1.22-1.22-1.22Z" fill="#2c3b5e"/><path d="M220.72,159.9c-.68,0-1.22.55-1.22,1.22s.55,1.22,1.22,1.22,1.22-.55,1.22-1.22-.55-1.22-1.22-1.22Z" fill="#2c3b5e"/><path d="M220.72,166.08c-.68,0-1.22.55-1.22,1.22s.55,1.22,1.22,1.22,1.22-.55,1.22-1.22-.55-1.22-1.22-1.22Z" fill="#2c3b5e"/><path d="M220.72,172.26c-.68,0-1.22.55-1.22,1.22s.55,1.22,1.22,1.22,1.22-.55,1.22-1.22-.55-1.22-1.22-1.22Z" fill="#2c3b5e"/><path d="M220.72,178.45c-.68,0-1.22.55-1.22,1.22s.55,1.22,1.22,1.22,1.22-.55,1.22-1.22-.55-1.22-1.22-1.22Z" fill="#2c3b5e"/><path d="M220.72,184.63c-.68,0-1.22.55-1.22,1.22s.55,1.22,1.22,1.22,1.22-.55,1.22-1.22-.55-1.22-1.22-1.22Z" fill="#2c3b5e"/><path d="M220.72,190.82c-.68,0-1.22.55-1.22,1.22s.55,1.22,1.22,1.22,1.22-.55,1.22-1.22-.55-1.22-1.22-1.22Z" fill="#2c3b5e"/><path d="M220.72,197c-.68,0-1.22.55-1.22,1.22s.55,1.22,1.22,1.22,1.22-.55,1.22-1.22-.55-1.22-1.22-1.22Z" fill="#2c3b5e"/><path d="M220.72,203.18c-.68,0-1.22.55-1.22,1.22s.55,1.22,1.22,1.22,1.22-.55,1.22-1.22-.55-1.22-1.22-1.22Z" fill="#2c3b5e"/><path d="M220.72,209.37c-.68,0-1.22.55-1.22,1.22s.55,1.22,1.22,1.22,1.22-.55,1.22-1.22-.55-1.22-1.22-1.22Z" fill="#2c3b5e"/><path d="M215.06,159.9c-.68,0-1.22.55-1.22,1.22s.55,1.22,1.22,1.22,1.22-.55,1.22-1.22-.55-1.22-1.22-1.22Z" fill="#2c3b5e"/><path d="M215.06,166.08c-.68,0-1.22.55-1.22,1.22s.55,1.22,1.22,1.22,1.22-.55,1.22-1.22-.55-1.22-1.22-1.22Z" fill="#2c3b5e"/><path d="M215.06,172.26c-.68,0-1.22.55-1.22,1.22s.55,1.22,1.22,1.22,1.22-.55,1.22-1.22-.55-1.22-1.22-1.22Z" fill="#2c3b5e"/><path d="M215.06,178.45c-.68,0-1.22.55-1.22,1.22s.55,1.22,1.22,1.22,1.22-.55,1.22-1.22-.55-1.22-1.22-1.22Z" fill="#2c3b5e"/><path d="M215.06,184.63c-.68,0-1.22.55-1.22,1.22s.55,1.22,1.22,1.22,1.22-.55,1.22-1.22-.55-1.22-1.22-1.22Z" fill="#2c3b5e"/><path d="M215.06,190.82c-.68,0-1.22.55-1.22,1.22s.55,1.22,1.22,1.22,1.22-.55,1.22-1.22-.55-1.22-1.22-1.22Z" fill="#2c3b5e"/><path d="M215.06,197c-.68,0-1.22.55-1.22,1.22s.55,1.22,1.22,1.22,1.22-.55,1.22-1.22-.55-1.22-1.22-1.22Z" fill="#2c3b5e"/><path d="M215.06,203.18c-.68,0-1.22.55-1.22,1.22s.55,1.22,1.22,1.22,1.22-.55,1.22-1.22-.55-1.22-1.22-1.22Z" fill="#2c3b5e"/><path d="M215.06,209.37c-.68,0-1.22.55-1.22,1.22s.55,1.22,1.22,1.22,1.22-.55,1.22-1.22-.55-1.22-1.22-1.22Z" fill="#2c3b5e"/><path d="M209.4,159.9c-.68,0-1.22.55-1.22,1.22s.55,1.22,1.22,1.22,1.22-.55,1.22-1.22-.55-1.22-1.22-1.22Z" fill="#2c3b5e"/><path d="M209.4,166.08c-.68,0-1.22.55-1.22,1.22s.55,1.22,1.22,1.22,1.22-.55,1.22-1.22-.55-1.22-1.22-1.22Z" fill="#2c3b5e"/><path d="M209.4,172.26c-.68,0-1.22.55-1.22,1.22s.55,1.22,1.22,1.22,1.22-.55,1.22-1.22-.55-1.22-1.22-1.22Z" fill="#2c3b5e"/><path d="M209.4,178.45c-.68,0-1.22.55-1.22,1.22s.55,1.22,1.22,1.22,1.22-.55,1.22-1.22-.55-1.22-1.22-1.22Z" fill="#2c3b5e"/><path d="M209.4,184.63c-.68,0-1.22.55-1.22,1.22s.55,1.22,1.22,1.22,1.22-.55,1.22-1.22-.55-1.22-1.22-1.22Z" fill="#2c3b5e"/><path d="M209.4,190.82c-.68,0-1.22.55-1.22,1.22s.55,1.22,1.22,1.22,1.22-.55,1.22-1.22-.55-1.22-1.22-1.22Z" fill="#2c3b5e"/><path d="M209.4,197c-.68,0-1.22.55-1.22,1.22s.55,1.22,1.22,1.22,1.22-.55,1.22-1.22-.55-1.22-1.22-1.22Z" fill="#2c3b5e"/><path d="M209.4,203.18c-.68,0-1.22.55-1.22,1.22s.55,1.22,1.22,1.22,1.22-.55,1.22-1.22-.55-1.22-1.22-1.22Z" fill="#2c3b5e"/><path d="M203.74,159.9c-.68,0-1.22.55-1.22,1.22s.55,1.22,1.22,1.22,1.22-.55,1.22-1.22-.55-1.22-1.22-1.22Z" fill="#2c3b5e"/><path d="M203.74,166.08c-.68,0-1.22.55-1.22,1.22s.55,1.22,1.22,1.22,1.22-.55,1.22-1.22-.55-1.22-1.22-1.22Z" fill="#2c3b5e"/><path d="M203.74,172.26c-.68,0-1.22.55-1.22,1.22s.55,1.22,1.22,1.22,1.22-.55,1.22-1.22-.55-1.22-1.22-1.22Z" fill="#2c3b5e"/><path d="M203.74,178.45c-.68,0-1.22.55-1.22,1.22s.55,1.22,1.22,1.22,1.22-.55,1.22-1.22-.55-1.22-1.22-1.22Z" fill="#2c3b5e"/><path d="M203.74,184.63c-.68,0-1.22.55-1.22,1.22s.55,1.22,1.22,1.22,1.22-.55,1.22-1.22-.55-1.22-1.22-1.22Z" fill="#2c3b5e"/><path d="M203.74,190.82c-.68,0-1.22.55-1.22,1.22s.55,1.22,1.22,1.22,1.22-.55,1.22-1.22-.55-1.22-1.22-1.22Z" fill="#2c3b5e"/><path d="M203.74,197c-.68,0-1.22.55-1.22,1.22s.55,1.22,1.22,1.22,1.22-.55,1.22-1.22-.55-1.22-1.22-1.22Z" fill="#2c3b5e"/><path d="M198.07,166.08c-.68,0-1.22.55-1.22,1.22s.55,1.22,1.22,1.22,1.22-.55,1.22-1.22-.55-1.22-1.22-1.22Z" fill="#2c3b5e"/><path d="M198.07,172.26c-.68,0-1.22.55-1.22,1.22s.55,1.22,1.22,1.22,1.22-.55,1.22-1.22-.55-1.22-1.22-1.22Z" fill="#2c3b5e"/><path d="M198.07,178.45c-.68,0-1.22.55-1.22,1.22s.55,1.22,1.22,1.22,1.22-.55,1.22-1.22-.55-1.22-1.22-1.22Z" fill="#2c3b5e"/><path d="M198.07,184.63c-.68,0-1.22.55-1.22,1.22s.55,1.22,1.22,1.22,1.22-.55,1.22-1.22-.55-1.22-1.22-1.22Z" fill="#2c3b5e"/><path d="M198.07,190.82c-.68,0-1.22.55-1.22,1.22s.55,1.22,1.22,1.22,1.22-.55,1.22-1.22-.55-1.22-1.22-1.22Z" fill="#2c3b5e"/><path d="M198.07,197c-.68,0-1.22.55-1.22,1.22s.55,1.22,1.22,1.22,1.22-.55,1.22-1.22-.55-1.22-1.22-1.22Z" fill="#2c3b5e"/><path d="M192.41,172.26c-.68,0-1.22.55-1.22,1.22s.55,1.22,1.22,1.22,1.22-.55,1.22-1.22-.55-1.22-1.22-1.22Z" fill="#2c3b5e"/><path d="M192.41,178.45c-.68,0-1.22.55-1.22,1.22s.55,1.22,1.22,1.22,1.22-.55,1.22-1.22-.55-1.22-1.22-1.22Z" fill="#2c3b5e"/><path d="M192.41,184.63c-.68,0-1.22.55-1.22,1.22s.55,1.22,1.22,1.22,1.22-.55,1.22-1.22-.55-1.22-1.22-1.22Z" fill="#2c3b5e"/><path d="M192.41,190.82c-.68,0-1.22.55-1.22,1.22s.55,1.22,1.22,1.22,1.22-.55,1.22-1.22-.55-1.22-1.22-1.22Z" fill="#2c3b5e"/><path d="M192.41,197c-.68,0-1.22.55-1.22,1.22s.55,1.22,1.22,1.22,1.22-.55,1.22-1.22-.55-1.22-1.22-1.22Z" fill="#2c3b5e"/><path d="M186.75,178.45c-.68,0-1.22.55-1.22,1.22s.55,1.22,1.22,1.22,1.22-.55,1.22-1.22-.55-1.22-1.22-1.22Z" fill="#2c3b5e"/><path d="M186.75,184.63c-.68,0-1.22.55-1.22,1.22s.55,1.22,1.22,1.22,1.22-.55,1.22-1.22-.55-1.22-1.22-1.22Z" fill="#2c3b5e"/><path d="M186.75,190.82c-.68,0-1.22.55-1.22,1.22s.55,1.22,1.22,1.22,1.22-.55,1.22-1.22-.55-1.22-1.22-1.22Z" fill="#2c3b5e"/><path d="M232.05,166.08c-.68,0-1.22.55-1.22,1.22s.55,1.22,1.22,1.22,1.22-.55,1.22-1.22-.55-1.22-1.22-1.22Z" fill="#2c3b5e"/><path d="M232.05,172.26c-.68,0-1.22.55-1.22,1.22s.55,1.22,1.22,1.22,1.22-.55,1.22-1.22-.55-1.22-1.22-1.22Z" fill="#2c3b5e"/><path d="M232.05,178.45c-.68,0-1.22.55-1.22,1.22s.55,1.22,1.22,1.22,1.22-.55,1.22-1.22-.55-1.22-1.22-1.22Z" fill="#2c3b5e"/><path d="M232.05,184.63c-.68,0-1.22.55-1.22,1.22s.55,1.22,1.22,1.22,1.22-.55,1.22-1.22-.55-1.22-1.22-1.22Z" fill="#2c3b5e"/><path d="M232.05,190.82c-.68,0-1.22.55-1.22,1.22s.55,1.22,1.22,1.22,1.22-.55,1.22-1.22-.55-1.22-1.22-1.22Z" fill="#2c3b5e"/><path d="M232.05,197c-.68,0-1.22.55-1.22,1.22s.55,1.22,1.22,1.22,1.22-.55,1.22-1.22-.55-1.22-1.22-1.22Z" fill="#2c3b5e"/><path d="M232.05,203.18c-.68,0-1.22.55-1.22,1.22s.55,1.22,1.22,1.22,1.22-.55,1.22-1.22-.55-1.22-1.22-1.22Z" fill="#2c3b5e"/><path d="M232.05,209.37c-.68,0-1.22.55-1.22,1.22s.55,1.22,1.22,1.22,1.22-.55,1.22-1.22-.55-1.22-1.22-1.22Z" fill="#2c3b5e"/><path d="M259.75,166.08c-.68,0-1.22.55-1.22,1.22s.55,1.22,1.22,1.22,1.22-.55,1.22-1.22-.55-1.22-1.22-1.22Z" fill="#2c3b5e"/><path d="M254.08,166.08c-.68,0-1.22.55-1.22,1.22s.55,1.22,1.22,1.22,1.22-.55,1.22-1.22-.55-1.22-1.22-1.22Z" fill="#2c3b5e"/><path d="M254.08,172.26c-.68,0-1.22.55-1.22,1.22s.55,1.22,1.22,1.22,1.22-.55,1.22-1.22-.55-1.22-1.22-1.22Z" fill="#2c3b5e"/><path d="M254.08,178.45c-.68,0-1.22.55-1.22,1.22s.55,1.22,1.22,1.22,1.22-.55,1.22-1.22-.55-1.22-1.22-1.22Z" fill="#2c3b5e"/><path d="M254.08,184.63c-.68,0-1.22.55-1.22,1.22s.55,1.22,1.22,1.22,1.22-.55,1.22-1.22-.55-1.22-1.22-1.22Z" fill="#2c3b5e"/><path d="M254.08,190.82c-.68,0-1.22.55-1.22,1.22s.55,1.22,1.22,1.22,1.22-.55,1.22-1.22-.55-1.22-1.22-1.22Z" fill="#2c3b5e"/><path d="M254.08,197c-.68,0-1.22.55-1.22,1.22s.55,1.22,1.22,1.22,1.22-.55,1.22-1.22-.55-1.22-1.22-1.22Z" fill="#2c3b5e"/><path d="M248.42,166.08c-.68,0-1.22.55-1.22,1.22s.55,1.22,1.22,1.22,1.22-.55,1.22-1.22-.55-1.22-1.22-1.22Z" fill="#2c3b5e"/><path d="M248.42,172.26c-.68,0-1.22.55-1.22,1.22s.55,1.22,1.22,1.22,1.22-.55,1.22-1.22-.55-1.22-1.22-1.22Z" fill="#2c3b5e"/><path d="M248.42,178.45c-.68,0-1.22.55-1.22,1.22s.55,1.22,1.22,1.22,1.22-.55,1.22-1.22-.55-1.22-1.22-1.22Z" fill="#2c3b5e"/><path d="M248.42,184.63c-.68,0-1.22.55-1.22,1.22s.55,1.22,1.22,1.22,1.22-.55,1.22-1.22-.55-1.22-1.22-1.22Z" fill="#2c3b5e"/><path d="M248.42,190.82c-.68,0-1.22.55-1.22,1.22s.55,1.22,1.22,1.22,1.22-.55,1.22-1.22-.55-1.22-1.22-1.22Z" fill="#2c3b5e"/><path d="M248.42,197c-.68,0-1.22.55-1.22,1.22s.55,1.22,1.22,1.22,1.22-.55,1.22-1.22-.55-1.22-1.22-1.22Z" fill="#2c3b5e"/><path d="M248.42,203.18c-.68,0-1.22.55-1.22,1.22s.55,1.22,1.22,1.22,1.22-.55,1.22-1.22-.55-1.22-1.22-1.22Z" fill="#2c3b5e"/><path d="M242.76,166.08c-.68,0-1.22.55-1.22,1.22s.55,1.22,1.22,1.22,1.22-.55,1.22-1.22-.55-1.22-1.22-1.22Z" fill="#2c3b5e"/><path d="M242.76,172.26c-.68,0-1.22.55-1.22,1.22s.55,1.22,1.22,1.22,1.22-.55,1.22-1.22-.55-1.22-1.22-1.22Z" fill="#2c3b5e"/><path d="M242.76,178.45c-.68,0-1.22.55-1.22,1.22s.55,1.22,1.22,1.22,1.22-.55,1.22-1.22-.55-1.22-1.22-1.22Z" fill="#2c3b5e"/><path d="M242.76,184.63c-.68,0-1.22.55-1.22,1.22s.55,1.22,1.22,1.22,1.22-.55,1.22-1.22-.55-1.22-1.22-1.22Z" fill="#2c3b5e"/><path d="M242.76,190.82c-.68,0-1.22.55-1.22,1.22s.55,1.22,1.22,1.22,1.22-.55,1.22-1.22-.55-1.22-1.22-1.22Z" fill="#2c3b5e"/><path d="M242.76,197c-.68,0-1.22.55-1.22,1.22s.55,1.22,1.22,1.22,1.22-.55,1.22-1.22-.55-1.22-1.22-1.22Z" fill="#2c3b5e"/><path d="M242.76,203.18c-.68,0-1.22.55-1.22,1.22s.55,1.22,1.22,1.22,1.22-.55,1.22-1.22-.55-1.22-1.22-1.22Z" fill="#2c3b5e"/></g></svg>