<?xml version="1.0" encoding="UTF-8"?>
<svg version="1.1" xmlns="http://www.w3.org/2000/svg" width="1080" height="1080">
<path d="M0 0 C1.01578125 -0.01160156 2.0315625 -0.02320313 3.078125 -0.03515625 C18.35744727 0.02361037 32.15612827 6.65355908 43 17.375 C54.01760998 30.90448647 59.34149502 45.78816253 58 63.375 C56.33851627 73.93013644 53.90123223 84.27962169 51.25 94.625 C50.66860214 96.91675651 50.08892926 99.2089459 49.50921631 101.50112915 C49.07901719 103.20145275 48.64821119 104.90162289 48.21685791 106.60165405 C46.37259393 113.87652141 44.5553996 121.15798877 42.74448395 128.44122314 C42.24831179 130.43647628 41.75175671 132.43163372 41.25506592 134.42675781 C41.00736387 135.42174664 41.00736387 135.42174664 40.75465775 136.43683624 C40.41974144 137.78210865 40.08481863 139.12737944 39.74988937 140.47264862 C38.9239754 143.79048829 38.09874438 147.10849477 37.27502441 150.42687988 C34.19279626 162.83554932 31.11175442 175.23396206 27.62837219 187.53695679 C25.88899079 193.69478477 24.38168303 199.89247783 22.9375 206.125 C21.15640477 213.68570663 19.26660382 221.15790732 17.05151367 228.6027832 C15.81267634 233.04700786 14.75530937 237.51948274 13.70703125 242.01171875 C11.39908983 251.79934423 8.94847364 261.54489708 6.43533325 271.28158569 C5.23752107 275.92354128 4.04639797 280.56721204 2.85546875 285.2109375 C2.61553696 286.14626816 2.37560516 287.08159882 2.12840271 288.04527283 C-1.31135781 301.47199869 -4.65729175 314.92225616 -8.00341797 328.37255859 C-9.66302858 335.04151544 -11.33203105 341.70812979 -13 348.375 C-12.21431641 348.34994385 -11.42863281 348.3248877 -10.61914062 348.29907227 C22.24599294 347.27725022 55.1223552 346.78297077 88 346.375 C89.040354 346.36190796 90.08070801 346.34881592 91.15258789 346.33532715 C96.21551805 346.27348042 101.27820236 346.22283464 106.34146118 346.19876099 C108.35227552 346.18795787 110.36303619 346.16827211 112.3737793 346.14819336 C129.98349695 346.13007761 144.45682717 352.06162576 157 364.375 C159.28561083 366.90465962 161.20576174 369.47923572 163 372.375 C163.67289063 373.45394531 163.67289063 373.45394531 164.359375 374.5546875 C171.8653844 387.31490348 174.14661726 402.55335935 171.3125 417.125 C168.87858851 426.04366867 165.08443921 435.30919962 159 442.375 C158.34 442.375 157.68 442.375 157 442.375 C156.64228516 443.24318359 156.64228516 443.24318359 156.27734375 444.12890625 C151.01849936 453.37610969 138.9069629 457.94788069 129.24926758 460.90063477 C122.17129908 462.80293327 115.17053249 462.93813004 107.8828125 463.0703125 C106.4080168 463.10706252 104.93324969 463.14497575 103.45851135 463.18395996 C99.504552 463.28489284 95.55040707 463.36869931 91.59597397 463.44861603 C88.26062096 463.51797479 84.92551927 463.59683002 81.59038067 463.6757412 C73.10767368 463.87642333 64.62469271 464.0590294 56.14133739 464.22995567 C51.02655272 464.33303591 45.91193418 464.4414724 40.79736328 464.5546875 C23.19934396 464.94094953 5.60151591 465.21499119 -12 465.375 C-13.16664059 465.38567253 -13.16664059 465.38567253 -14.35684967 465.39656067 C-25.63360267 465.49790217 -36.91020328 465.56745595 -48.18734741 465.60516357 C-51.60979732 465.61686248 -55.03211295 465.63501685 -58.45449829 465.65899658 C-62.49124608 465.68659418 -66.52776455 465.69854773 -70.56460381 465.69919968 C-72.04646032 465.70176062 -73.5283191 465.70932177 -75.01011848 465.72258377 C-93.97718224 465.88278474 -112.53500718 462.55297219 -127 449.375 C-127.69738281 448.75753906 -128.39476562 448.14007812 -129.11328125 447.50390625 C-139.48742903 437.79401652 -145.44794193 424.73670528 -146.203125 410.5625 C-146.37914792 401.10013946 -145.44525075 392.56830327 -143 383.375 C-142.70996094 382.26640625 -142.41992188 381.1578125 -142.12109375 380.015625 C-141.49099397 377.6428643 -140.85294181 375.27220312 -140.20751953 372.90356445 C-138.82056658 367.7530412 -137.53354831 362.57847612 -136.24609375 357.40234375 C-135.98567291 356.35804703 -135.72525208 355.31375031 -135.4569397 354.23780823 C-134.63726741 350.9503776 -133.81859549 347.6626989 -133 344.375 C-131.21438957 337.20995297 -129.42769828 330.04517573 -127.64013672 322.88061523 C-127.1260528 320.81919451 -126.61238726 318.75766941 -126.09912109 316.69604492 C-123.46130688 306.10240352 -120.79796599 295.52173488 -117.95654297 284.98071289 C-116.29866563 278.73130238 -114.75211463 272.45417806 -113.1963501 266.17871094 C-110.56334455 255.56230655 -107.92059569 244.94995739 -105.125 234.375 C-102.19126242 223.25440635 -99.41019371 212.09599996 -96.625 200.9375 C-96.38693634 199.98380524 -96.14887268 199.03011047 -95.90359497 198.04751587 C-93.66921244 189.09397511 -91.43915515 180.1393582 -89.20996094 171.18452454 C-88.49345235 168.30725552 -87.77607481 165.43020357 -87.05853271 162.55319214 C-86.58374804 160.64777322 -86.11044282 158.74198584 -85.63720703 156.83618164 C-84.14504726 150.85063305 -82.6100807 144.88000287 -81.01171875 138.921875 C-79.00708757 131.44734722 -77.1153759 123.94783046 -75.25 116.4375 C-74.90452067 115.05115265 -74.55889537 113.66484167 -74.21313477 112.27856445 C-72.96696688 107.28091536 -71.72330342 102.28264408 -70.47991943 97.28430176 C-68.31920965 88.598839 -66.15297585 79.91481387 -63.97021484 71.23486328 C-63.32317437 68.66070377 -62.67766742 66.08615832 -62.03369141 63.51123047 C-61.11313396 59.83891946 -60.18297823 56.1691725 -59.25 52.5 C-58.98050537 51.41936279 -58.71101074 50.33872559 -58.43334961 49.2253418 C-55.06091883 36.06901882 -50.30720253 24.65148228 -40 15.375 C-39.51273437 14.90707031 -39.02546875 14.43914062 -38.5234375 13.95703125 C-27.51011522 3.80494033 -14.71917887 -0.16811245 0 0 Z " fill="#2B1D1A" transform="translate(531,400.625)"/>
<path d="M0 0 C0.71559082 0.01256836 1.43118164 0.02513672 2.16845703 0.03808594 C15.70462728 0.32703054 28.74319166 2.3222022 42 5 C43.32668701 5.26272705 43.32668701 5.26272705 44.68017578 5.53076172 C69.38867872 10.53730187 96.50293768 19.81435035 117 35 C117 35.66 117 36.32 117 37 C117.70125 37.23074219 118.4025 37.46148437 119.125 37.69921875 C122.55533716 39.25125988 125.18216555 41.36871055 128 43.8125 C128.55453857 44.2880835 129.10907715 44.76366699 129.68041992 45.25366211 C134.03500798 49.04289406 138.21004533 53.0027318 142.3125 57.0625 C142.88162109 57.62235596 143.45074219 58.18221191 144.03710938 58.7590332 C148 62.75322919 148 62.75322919 148 65 C148.66 65 149.32 65 150 65 C154 70.41176471 154 70.41176471 154 73 C154.66 73 155.32 73 156 73 C157.1574707 74.5378418 157.1574707 74.5378418 158.42578125 76.69921875 C158.89056885 77.49021973 159.35535645 78.2812207 159.83422852 79.09619141 C160.32205811 79.95132324 160.8098877 80.80645508 161.3125 81.6875 C162.05681274 82.9856665 162.05681274 82.9856665 162.81616211 84.31005859 C166.59381763 91.02326077 169.702402 97.62679914 172 105 C172.24234375 105.72445312 172.4846875 106.44890625 172.734375 107.1953125 C176.72743276 121.38685562 174.43739958 138.57103613 167.3125 151.3125 C161.86634629 159.55718105 155.22150494 166.52991504 147 172 C146.02933594 172.67675781 146.02933594 172.67675781 145.0390625 173.3671875 C132.17843943 181.95788038 116.49615545 182.6890898 101.625 179.75 C96.24786863 178.48443642 91.77000872 176.76660506 87 174 C87 173.34 87 172.68 87 172 C86.40832031 171.87753906 85.81664062 171.75507813 85.20703125 171.62890625 C74.37446277 168.54210355 67.23203993 156.06803074 62 147 C60.72464653 144.41668459 59.49225819 141.83007791 58.3359375 139.19140625 C55.14948899 133.96451263 49.56720765 131.54056022 44.25 128.9375 C43.53263672 128.58534424 42.81527344 128.23318848 42.07617188 127.87036133 C26.85941677 120.5085835 11.18824468 118.47764583 -5.56347656 118.60888672 C-7.99861619 118.62499085 -10.4320971 118.6089214 -12.8671875 118.58984375 C-31.22167921 118.56588575 -48.29996446 122.25756446 -65 130 C-65.71857178 130.33217529 -66.43714355 130.66435059 -67.17749023 131.0065918 C-71.23224251 132.95014074 -74.51097031 135.12668143 -78 138 C-78.66 138 -79.32 138 -80 138 C-80 138.99 -80 139.98 -80 141 C-81.6652305 142.66810159 -83.33214243 144.33452509 -85 146 C-86.31608495 148.19079995 -87.56365634 150.42381434 -88.75 152.6875 C-96.86143781 167.55586324 -109.40764708 178.18210576 -125.671875 183.11328125 C-142.07476263 186.89167567 -157.68719411 184.92385474 -172.30957031 176.12451172 C-186.71091767 166.54441266 -195.06096462 153.30283627 -198.875 136.5625 C-202.27252442 117.34891363 -195.32700203 98.75454234 -184.61035156 82.95068359 C-178.64086053 74.48568491 -172.1650156 66.48562914 -165 59 C-164.12988281 58.06994141 -164.12988281 58.06994141 -163.2421875 57.12109375 C-155.74929343 49.33196899 -146.94236532 43.01202099 -138 37 C-137.18273437 36.44699219 -136.36546875 35.89398438 -135.5234375 35.32421875 C-121.31824778 25.98999288 -106.61139997 19.28289097 -90.52880859 13.85498047 C-88.33054279 13.11175525 -86.14340716 12.34364874 -83.95703125 11.56640625 C-72.57834369 7.71755619 -60.85482401 5.66005194 -49.05151367 3.55078125 C-47.05972363 3.19127422 -45.07011078 2.81942387 -43.08325195 2.43359375 C-37.31050445 1.32300505 -31.68480139 0.61527626 -25.8125 0.375 C-24.58950195 0.31916748 -24.58950195 0.31916748 -23.34179688 0.26220703 C-15.55756828 -0.06642674 -7.79048082 -0.17332667 0 0 Z " fill="#2B1D1A" transform="translate(757,196)"/>
<path d="M0 0 C0 0.66 0 1.32 0 2 C0.71027344 2.25910156 1.42054688 2.51820313 2.15234375 2.78515625 C5.18816351 4.08027277 7.79245594 5.64602505 10.5625 7.4375 C11.49191406 8.03433594 12.42132813 8.63117188 13.37890625 9.24609375 C18.15785794 12.44393177 18.15785794 12.44393177 20 14 C20 14.66 20 15.32 20 16 C20.598125 16.28875 21.19625 16.5775 21.8125 16.875 C24 18 24 18 27 20 C27 20.66 27 21.32 27 22 C27.59425781 22.27070313 28.18851562 22.54140625 28.80078125 22.8203125 C43.00342278 30.43878096 55.2955259 53.4526041 61 68 C61.46535156 69.10472656 61.93070313 70.20945312 62.41015625 71.34765625 C67.93877886 85.74671514 67.98830934 100.66732518 62 115 C61.63777344 115.87914062 61.27554687 116.75828125 60.90234375 117.6640625 C54.56454245 131.54277314 43.21156442 142.41406565 29 148 C21.67792371 150.70527109 14.97304665 151.54846549 7.1875 151.5 C6.13159668 151.49500488 5.07569336 151.49000977 3.98779297 151.48486328 C-4.33595097 151.29903682 -10.63161156 150.05045914 -18 146 C-18.86109375 145.5771875 -19.7221875 145.154375 -20.609375 144.71875 C-33.94473952 137.59551181 -42.45346851 125.48244438 -48.83203125 112.16796875 C-50.18901593 109.64915103 -51.86979792 107.89351296 -54 106 C-54 105.34 -54 104.68 -54 104 C-54.680625 103.7525 -55.36125 103.505 -56.0625 103.25 C-59 102 -59 102 -62.125 100.125 C-88.76266088 84.69116215 -123.4240533 85.27220313 -152.35009766 92.79638672 C-159.16330389 94.66514372 -165.69335135 96.77486083 -172 100 C-172.71542969 100.32871094 -173.43085938 100.65742188 -174.16796875 100.99609375 C-178.19204459 102.87985967 -180.97286228 104.68906812 -184 108 C-184.54914063 108.39960938 -185.09828125 108.79921875 -185.6640625 109.2109375 C-190.90041605 113.15384914 -193.78203865 117.68701735 -196.9375 123.3125 C-206.00729388 139.38456857 -217.33053323 148.35427465 -235 154 C-252.07843198 157.96463599 -268.34900373 153.81823325 -283 145 C-285.69724913 143.12543232 -287.72554959 141.38817293 -290 139 C-290 138.34 -290 137.68 -290 137 C-290.99 136.67 -291.98 136.34 -293 136 C-305.70915866 122.06778423 -307.64832625 106.38353588 -307.12304688 88.43115234 C-306.14139499 69.03573667 -290.93916204 50.18353939 -279 36 C-278.31421875 35.17886719 -277.6284375 34.35773438 -276.921875 33.51171875 C-244.4578357 -4.03212527 -191.20625479 -23.41877353 -143 -28 C-93.75403282 -31.49138695 -43.16047731 -25.57657914 0 0 Z " fill="#2B1D1A" transform="translate(457,231)"/>
<path d="M0 0 C2.54186606 0.31094086 5.08348598 0.62370536 7.625 0.9375 C8.69427734 1.06801758 8.69427734 1.06801758 9.78515625 1.20117188 C10.83896484 1.33168945 10.83896484 1.33168945 11.9140625 1.46484375 C12.8723999 1.58267212 12.8723999 1.58267212 13.85009766 1.70288086 C15.46768625 1.92643359 17.07616033 2.21750924 18.67675781 2.54101562 C22.91461414 3.1263205 26.98998542 3.01403893 31.2578125 2.87890625 C33.15885064 2.82985973 35.05989249 2.78095707 36.9609375 2.73217773 C37.96479492 2.70437225 38.96865234 2.67656677 40.00292969 2.6479187 C59.6700399 2.10983376 79.3258818 1.90441553 99 1.9375 C100.15920959 1.9393631 101.31841919 1.9412262 102.51275635 1.94314575 C109.00853358 1.95511224 115.50426579 1.97352674 122 2 C122 2.33 122 2.66 122 3 C121.34515625 3.02505615 120.6903125 3.0501123 120.015625 3.07592773 C117.01026764 3.19292655 114.00514515 3.31517635 111 3.4375 C109.97003906 3.47681641 108.94007813 3.51613281 107.87890625 3.55664062 C106.86699219 3.59853516 105.85507812 3.64042969 104.8125 3.68359375 C103.89082031 3.72025146 102.96914063 3.75690918 102.01953125 3.79467773 C99.77080031 3.94758707 97.52839192 4.19969118 95.29493713 4.50276184 C91.27321229 5.01195285 87.31826949 5.1399051 83.26147461 5.16113281 C82.53337585 5.16609772 81.8052771 5.17106262 81.05511475 5.17617798 C78.67084774 5.19065749 76.28664732 5.19757914 73.90234375 5.203125 C72.66717105 5.20736607 72.66717105 5.20736607 71.40704536 5.21169281 C67.04553031 5.22663084 62.68404784 5.23589317 58.32250977 5.24023438 C53.86024948 5.24569812 49.39829752 5.2696972 44.93613338 5.29820633 C41.46730227 5.3170067 37.99854271 5.32204755 34.52966499 5.32357025 C32.88693121 5.32656037 31.24419754 5.33446242 29.60151482 5.34775543 C18.99605429 5.42742462 9.32987966 4.51553601 -1 2 C-0.67 1.34 -0.34 0.68 0 0 Z " fill="#1D110E" transform="translate(428,861)"/>
<path d="M0 0 C0.66 0 1.32 0 2 0 C1.41224782 5.35404339 0.51946738 10.48594145 -0.8203125 15.70703125 C-0.99988495 16.4224408 -1.1794574 17.13785034 -1.36447144 17.87493896 C-1.9466051 20.18867758 -2.53560524 22.50060144 -3.125 24.8125 C-3.53025964 26.41585549 -3.93520461 28.01929054 -4.33984375 29.62280273 C-5.55189908 34.41725334 -6.77415591 39.20905841 -8 44 C-8.18381226 44.71873291 -8.36762451 45.43746582 -8.55700684 46.17797852 C-14.60997226 69.82991679 -14.60997226 69.82991679 -16 74 C-16.66 74 -17.32 74 -18 74 C-15.57352313 61.13797578 -12.35622193 48.53316275 -8.96514893 35.89953613 C-5.76586319 23.97918832 -2.75230514 12.03269083 0 0 Z " fill="#100705" transform="translate(407,709)"/>
<path d="M0 0 C5.45285481 6.54342577 7.46944583 15.64377183 8 24 C8.0515625 24.78246094 8.103125 25.56492187 8.15625 26.37109375 C8.56125293 37.728051 5.5527637 49.00347943 3 60 C2.01 59.67 1.02 59.34 0 59 C0.27714844 57.99839844 0.55429687 56.99679687 0.83984375 55.96484375 C1.20594952 54.62245591 1.57182251 53.28000457 1.9375 51.9375 C2.21110352 50.95233398 2.21110352 50.95233398 2.49023438 49.94726562 C6.52845804 35.04254918 6.01444973 21.45772002 1 7 C0.33333333 5 -0.33333333 3 -1 1 C-0.67 0.67 -0.34 0.34 0 0 Z " fill="#1D110F" transform="translate(581,429)"/>
<path d="M0 0 C0.66 0 1.32 0 2 0 C-0.50830411 12.15562762 -3.5272743 24.17145559 -6.625 36.1875 C-6.82463348 36.96284088 -7.02426697 37.73818176 -7.22994995 38.53701782 C-7.81059705 40.78940767 -8.39307163 43.04131405 -8.9765625 45.29296875 C-9.15043991 45.96540619 -9.32431732 46.63784363 -9.50346375 47.33065796 C-10.60751572 51.57314545 -11.7814069 55.78941687 -13 60 C-13.33 60 -13.66 60 -14 60 C-14.22123671 54.68340521 -13.45483681 50.1346313 -12 45.0625 C-11.54436544 43.40954387 -11.09146459 41.75583287 -10.640625 40.1015625 C-10.38474609 39.16344727 -10.12886719 38.22533203 -9.86523438 37.25878906 C-8.84564946 33.41865943 -7.87870588 29.56710302 -6.921875 25.7109375 C-6.74297729 24.99008469 -6.56407959 24.26923187 -6.37976074 23.52653503 C-5.65450558 20.59956882 -4.93089804 17.67220404 -4.20996094 14.74417114 C-3.69924138 12.671401 -3.18573425 10.59933737 -2.671875 8.52734375 C-2.3737793 7.31812256 -2.07568359 6.10890137 -1.76855469 4.86303711 C-1 2 -1 2 0 0 Z " fill="#120906" transform="translate(459,506)"/>
<path d="M0 0 C1.05114302 3.15342905 0.99132541 3.91598312 0.22729492 6.99658203 C0.03346725 7.79395782 -0.16036041 8.59133362 -0.36006165 9.41287231 C-0.57768661 10.26920258 -0.79531158 11.12553284 -1.01953125 12.0078125 C-1.34747932 13.32965042 -1.34747932 13.32965042 -1.68205261 14.67819214 C-2.14636863 16.54022014 -2.61484709 18.40121438 -3.0871582 20.26123047 C-3.8106857 23.11783686 -4.51653593 25.97841127 -5.22070312 28.83984375 C-5.67342294 30.6460984 -6.12716426 32.45209738 -6.58203125 34.2578125 C-6.79358353 35.11819122 -7.0051358 35.97856995 -7.22309875 36.86502075 C-7.7529892 38.92706649 -8.36851527 40.96676526 -9 43 C-9.99 43.495 -9.99 43.495 -11 44 C-10.37023056 38.36388156 -9.44002876 32.90427912 -8.1875 27.375 C-7.92573975 26.21073486 -7.92573975 26.21073486 -7.65869141 25.02294922 C-3.32394593 6.0889983 -3.32394593 6.0889983 0 0 Z " fill="#120806" transform="translate(540,654)"/>
<path d="M0 0 C1.38120529 0.0001133 1.38120529 0.0001133 2.79031372 0.00022888 C4.28412064 0.00797081 4.28412064 0.00797081 5.80810547 0.01586914 C7.33538773 0.01799156 7.33538773 0.01799156 8.89352417 0.02015686 C12.15414332 0.02576639 15.41469448 0.03832051 18.67529297 0.05102539 C20.88232323 0.05603916 23.08935456 0.06060228 25.29638672 0.06469727 C30.71437877 0.07573891 36.13233101 0.09248634 41.55029297 0.11352539 C41.55029297 0.44352539 41.55029297 0.77352539 41.55029297 1.11352539 C28.18529297 1.60852539 28.18529297 1.60852539 14.55029297 2.11352539 C14.55029297 2.44352539 14.55029297 2.77352539 14.55029297 3.11352539 C7.62029297 3.11352539 0.69029297 3.11352539 -6.44970703 3.11352539 C-6.44970703 2.45352539 -6.44970703 1.79352539 -6.44970703 1.11352539 C-4.07579867 -0.07342879 -2.64725752 -0.00723294 0 0 Z " fill="#1F1411" transform="translate(565.44970703125,861.886474609375)"/>
<path d="M0 0 C-0.33 0.66 -0.66 1.32 -1 2 C-2.03705078 1.99476318 -3.07410156 1.98952637 -4.14257812 1.98413086 C-8.07144268 1.96572902 -12.00030363 1.95444251 -15.92919922 1.94506836 C-17.61442713 1.9401071 -19.29965091 1.93333597 -20.98486328 1.92456055 C-32.0378051 1.86853788 -42.97644204 2.15181333 -54 3 C-53.67 2.01 -53.34 1.02 -53 0 C-35.25900981 -0.97541163 -17.7426789 -0.92466573 0 0 Z " fill="#180E0A" transform="translate(367,203)"/>
<path d="M0 0 C0 3.94433218 -1.4492448 5.47414386 -3.625 8.75 C-9.65659209 18.16271573 -13.57426723 28.423115 -16.359375 39.2421875 C-17 41 -17 41 -19 42 C-18.07369216 26.56153592 -9.98112739 11.50602185 0 0 Z " fill="#19100D" transform="translate(169,279)"/>
<path d="M0 0 C0.99 0.33 1.98 0.66 3 1 C2.69707031 2.05574219 2.39414062 3.11148438 2.08203125 4.19921875 C-1.28412383 16.05729585 -4.22363406 27.9911014 -7 40 C-9 37 -9 37 -8.50854492 33.5859375 C-8.1790926 32.17912527 -7.83543422 30.77559237 -7.48046875 29.375 C-7.30244217 28.63169434 -7.12441559 27.88838867 -6.94099426 27.12255859 C-6.3684359 24.74529266 -5.77807021 22.37284818 -5.1875 20 C-4.8002889 18.40131817 -4.41420748 16.80236227 -4.02929688 15.203125 C-1.27179705 3.81539116 -1.27179705 3.81539116 0 0 Z " fill="#1C120D" transform="translate(549,614)"/>
<path d="M0 0 C0.66 0 1.32 0 2 0 C1.41621953 7.97533935 -0.4341808 15.56772189 -2.38354492 23.29589844 C-2.94260845 25.52032575 -3.48634798 27.74815381 -4.02929688 29.9765625 C-4.38189981 31.39085286 -4.73538286 32.80492415 -5.08984375 34.21875 C-5.56732056 36.1359082 -5.56732056 36.1359082 -6.05444336 38.09179688 C-6.36647705 39.05150391 -6.67851074 40.01121094 -7 41 C-7.99 41.495 -7.99 41.495 -9 42 C-8.36113758 33.08634817 -6.08995015 24.57777288 -3.9375 15.9375 C-3.55611948 14.38880012 -3.17525569 12.83997289 -2.79492188 11.29101562 C-1.86923561 7.52584829 -0.93656158 3.76247623 0 0 Z " fill="#100806" transform="translate(437,590)"/>
<path d="M0 0 C0.66 0 1.32 0 2 0 C1.855625 0.56203125 1.71125 1.1240625 1.5625 1.703125 C0.12622026 8.20628048 -0.1924102 14.49377277 -0.1875 21.125 C-0.18814453 21.9593457 -0.18878906 22.79369141 -0.18945312 23.65332031 C-0.14168022 29.16674743 0.31207753 34.52964053 1 40 C0.34 40 -0.32 40 -1 40 C-4.66396529 26.68541187 -3.83592892 13.12892338 0 0 Z " fill="#180C0A" transform="translate(388,785)"/>
<path d="M0 0 C1.35334072 3.74322255 0.6412121 6.40097138 -0.328125 10.19921875 C-0.78638672 12.01389648 -0.78638672 12.01389648 -1.25390625 13.86523438 C-1.58261719 15.12658203 -1.91132813 16.38792969 -2.25 17.6875 C-2.56324219 18.92951172 -2.87648438 20.17152344 -3.19921875 21.45117188 C-4.8893204 28.06781464 -6.73805194 34.55624055 -9 41 C-9.66 40.67 -10.32 40.34 -11 40 C-10.83918945 39.38705078 -10.67837891 38.77410156 -10.51269531 38.14257812 C-9.75753016 35.26196239 -9.00361221 32.3810224 -8.25 29.5 C-7.84164917 27.94031494 -7.84164917 27.94031494 -7.42504883 26.34912109 C-5.46622359 18.84558931 -3.5810845 11.32753156 -1.76171875 3.7890625 C-1 1 -1 1 0 0 Z " fill="#0E0604" transform="translate(419,665)"/>
<path d="M0 0 C1.64935547 0.02030273 1.64935547 0.02030273 3.33203125 0.04101562 C6.01355332 0.075992 8.69400073 0.12506928 11.375 0.1875 C11.375 0.8475 11.375 1.5075 11.375 2.1875 C10.18003906 2.16429687 8.98507812 2.14109375 7.75390625 2.1171875 C-3.99447679 1.95413561 -13.1179603 3.06864643 -24.14453125 7.28515625 C-26.29650876 8.06800161 -28.39415701 8.68309028 -30.625 9.1875 C-30.625 8.5275 -30.625 7.8675 -30.625 7.1875 C-20.37675453 1.68381262 -11.64996305 -0.27603193 0 0 Z " fill="#1E110E" transform="translate(531.625,400.8125)"/>
<path d="M0 0 C0.66 0.33 1.32 0.66 2 1 C-2.4921875 18.96875 -2.4921875 18.96875 -3.27636719 22.09765625 C-3.72471759 23.89589837 -4.16890217 25.69519153 -4.60644531 27.49609375 C-5.89776235 32.79552469 -5.89776235 32.79552469 -7 35 C-7.66 34.67 -8.32 34.34 -9 34 C-8.06926952 30.01921922 -7.12917891 26.04070382 -6.1875 22.0625 C-5.79594727 20.38704102 -5.79594727 20.38704102 -5.39648438 18.67773438 C-3.8867808 12.32206871 -2.17541233 6.16040189 0 0 Z " fill="#1D110E" transform="translate(559,577)"/>
<path d="M0 0 C0.33 0 0.66 0 1 0 C0.36624893 7.56490197 -1.23234129 14.7036484 -3.0625 22.0625 C-3.48499023 23.79016602 -3.48499023 23.79016602 -3.91601562 25.55273438 C-4.60566181 28.3697637 -5.30042667 31.18542267 -6 34 C-6.66 33.34 -7.32 32.68 -8 32 C-7.66945977 22.37544636 -4.33829454 8.67658907 0 0 Z " fill="#1B100C" transform="translate(569,538)"/>
<path d="M0 0 C0.33 0 0.66 0 1 0 C0.38627074 6.87800037 -0.89896752 13.3664323 -2.5625 20.0625 C-2.79646484 21.02349609 -3.03042969 21.98449219 -3.27148438 22.97460938 C-3.84267943 25.31767482 -4.41892423 27.65936918 -5 30 C-5.99 30 -6.98 30 -8 30 C-7.31050826 27.24203303 -6.62072773 24.48414209 -5.9296875 21.7265625 C-5.26339219 19.05578213 -4.6019388 16.3840883 -3.9453125 13.7109375 C-3.67895996 12.63199219 -3.67895996 12.63199219 -3.40722656 11.53125 C-3.05573701 10.1072336 -2.70609106 8.68276073 -2.35839844 7.2578125 C-1.11265686 2.22531372 -1.11265686 2.22531372 0 0 Z " fill="#1B0F0B" transform="translate(578,502)"/>
<path d="M0 0 C0.66 0.33 1.32 0.66 2 1 C0.89678664 11.53815749 -1.60024755 21.00836112 -5 31 C-5.66 30.67 -6.32 30.34 -7 30 C-4.69 20.1 -2.38 10.2 0 0 Z " fill="#0C0504" transform="translate(426,633)"/>
<path d="M0 0 C-1.18006948 3.54020844 -2.0641672 3.94282484 -5.0625 6 C-12.1068793 11.28047571 -16.5832783 18.49428276 -21 26 C-21.66 25.67 -22.32 25.34 -23 25 C-21.75424629 22.93483062 -20.50358285 20.87291011 -19.25 18.8125 C-18.90195312 18.23435547 -18.55390625 17.65621094 -18.1953125 17.06054688 C-14.84879505 11.57597662 -11.4849021 7.10964894 -6.375 3.1875 C-5.59898437 2.58292969 -4.82296875 1.97835938 -4.0234375 1.35546875 C-2 0 -2 0 0 0 Z " fill="#190E0B" transform="translate(500,410)"/>
<path d="M0 0 C0.33 0 0.66 0 1 0 C0.32422699 6.44641891 -0.93934745 12.63477657 -2.4375 18.9375 C-2.76331055 20.37319336 -2.76331055 20.37319336 -3.09570312 21.83789062 C-3.31033203 22.74603516 -3.52496094 23.65417969 -3.74609375 24.58984375 C-3.93872803 25.41347412 -4.1313623 26.23710449 -4.32983398 27.08569336 C-5 29 -5 29 -7 30 C-6.40063635 23.29802468 -5.18025422 17.00978494 -3.5 10.5 C-3.27441406 9.59507812 -3.04882812 8.69015625 -2.81640625 7.7578125 C-1.13612928 1.13612928 -1.13612928 1.13612928 0 0 Z " fill="#100604" transform="translate(528,700)"/>
<path d="M0 0 C0.59280762 0.1429248 1.18561523 0.28584961 1.79638672 0.43310547 C8.32667783 1.88865994 14.45103325 2.24685613 21.125 2.125 C22.55972656 2.11146484 22.55972656 2.11146484 24.0234375 2.09765625 C26.34923525 2.07439827 28.67447294 2.04172213 31 2 C22.69717214 7.53521857 11.47539871 5.171355 2.16796875 3.4375 C1.45253906 3.293125 0.73710937 3.14875 0 3 C0 2.01 0 1.02 0 0 Z " fill="#221712" transform="translate(190,381)"/>
<path d="M0 0 C-13 6.5 -13 6.5 -26 13 C-26.33 12.34 -26.66 11.68 -27 11 C-24.48168311 9.55793859 -21.96052215 8.12128792 -19.4375 6.6875 C-18.73302734 6.28337891 -18.02855469 5.87925781 -17.30273438 5.46289062 C-4.31521907 -1.89869639 -4.31521907 -1.89869639 0 0 Z " fill="#190F0D" transform="translate(245,223)"/>
<path d="M0 0 C0 0.99 0 1.98 0 3 C-12.87 5.475 -12.87 5.475 -26 8 C-22.81977055 4.81977055 -21.88242229 4.47320235 -17.67578125 3.61328125 C-16.64775391 3.39736328 -15.61972656 3.18144531 -14.56054688 2.95898438 C-13.48869141 2.74564453 -12.41683594 2.53230469 -11.3125 2.3125 C-10.22904297 2.08755859 -9.14558594 1.86261719 -8.02929688 1.63085938 C-5.35477409 1.07710356 -2.67853815 0.53393313 0 0 Z " fill="#1F1210" transform="translate(705,200)"/>
<path d="M0 0 C0 3 0 3 -1.43701172 4.70166016 C-2.09459473 5.30800293 -2.75217773 5.9143457 -3.4296875 6.5390625 C-4.14253906 7.20164063 -4.85539063 7.86421875 -5.58984375 8.546875 C-6.72099609 9.57554687 -6.72099609 9.57554687 -7.875 10.625 C-8.99455078 11.66527344 -8.99455078 11.66527344 -10.13671875 12.7265625 C-15.67913779 17.8395689 -15.67913779 17.8395689 -18 19 C-16.5149353 10.56629921 -6.31963824 4.89549441 0 0 Z " fill="#130B08" transform="translate(198,248)"/>
<path d="M0 0 C-2.22712565 2.22712565 -3.48963207 2.62115019 -6.46484375 3.5078125 C-7.34720703 3.77207031 -8.22957031 4.03632813 -9.13867188 4.30859375 C-10.5240918 4.71271484 -10.5240918 4.71271484 -11.9375 5.125 C-13.31711914 5.54072266 -13.31711914 5.54072266 -14.72460938 5.96484375 C-21.59702124 8 -21.59702124 8 -25 8 C-25 7.34 -25 6.68 -25 6 C-21.96296132 4.98555534 -18.91972923 3.99109954 -15.875 3 C-15.0190625 2.71382812 -14.163125 2.42765625 -13.28125 2.1328125 C-8.71721091 0.6582768 -4.86207544 -0.38258954 0 0 Z " fill="#1C110E" transform="translate(278,211)"/>
<path d="M0 0 C1.13308594 0.13148438 1.13308594 0.13148438 2.2890625 0.265625 C6.35567922 0.77750682 9.87732145 1.48814315 13.625 3.25 C13.625 3.58 13.625 3.91 13.625 4.25 C7.74623504 4.41032995 2.39111905 3.8592534 -3.375 2.75 C-4.14972656 2.60691406 -4.92445313 2.46382812 -5.72265625 2.31640625 C-7.60795579 1.96727671 -9.49165939 1.60954684 -11.375 1.25 C-7.4052631 -1.39649126 -4.49539454 -0.60748575 0 0 Z " fill="#1B0F0B" transform="translate(380.375,204.75)"/>
<path d="M0 0 C0.66 0.66 1.32 1.32 2 2 C1.45472656 2.67482422 1.45472656 2.67482422 0.8984375 3.36328125 C-3.43099919 8.90273999 -6.76858171 14.76634203 -10 21 C-10.66 20.34 -11.32 19.68 -12 19 C-10.79228068 16.81719582 -9.58189553 14.63595668 -8.3671875 12.45703125 C-7.53296054 10.95780623 -6.70357245 9.45585852 -5.8828125 7.94921875 C-4.20960177 4.92057762 -2.65572102 2.25736287 0 0 Z " fill="#221310" transform="translate(266,341)"/>
<path d="M0 0 C0.66 0 1.32 0 2 0 C1.54591873 2.52166467 1.0868593 5.04225816 0.625 7.5625 C0.49867188 8.26697266 0.37234375 8.97144531 0.2421875 9.69726562 C-0.59281367 14.22714697 -1.66723956 18.59030133 -3 23 C-3.33 23 -3.66 23 -4 23 C-4.23136637 17.4978184 -3.4350346 12.86146222 -2 7.5625 C-1.80921875 6.83095703 -1.6184375 6.09941406 -1.421875 5.34570312 C-0.95549597 3.56180334 -0.47881722 1.78060155 0 0 Z " fill="#160E0B" transform="translate(468,468)"/>
<path d="M0 0 C0.66 0.33 1.32 0.66 2 1 C1.3900874 5.98844309 0.36525565 10.60155346 -1.0625 15.4375 C-1.42472656 16.67371094 -1.78695313 17.90992188 -2.16015625 19.18359375 C-2.43730469 20.11300781 -2.71445312 21.04242188 -3 22 C-3.66 21.67 -4.32 21.34 -5 21 C-2.525 10.605 -2.525 10.605 0 0 Z " fill="#160C08" transform="translate(474,444)"/>
<path d="M0 0 C0.66 0.33 1.32 0.66 2 1 C1.42351925 8.35012956 -0.71046164 15.01424576 -3 22 C-3.33 22 -3.66 22 -4 22 C-3.3622098 14.47407567 -1.80110167 7.32901118 0 0 Z " fill="#0E0604" transform="translate(443,566)"/>
<path d="M0 0 C0 0.66 0 1.32 0 2 C3.63 2 7.26 2 11 2 C11 2.33 11 2.66 11 3 C4.07 3 -2.86 3 -10 3 C-10 2.34 -10 1.68 -10 1 C-6.78548731 -0.60725635 -3.56387464 -0.05748185 0 0 Z " fill="#130806" transform="translate(569,862)"/>
<path d="M0 0 C6.76215448 0.40939975 12.67162748 1.56953809 19 4 C18.67 4.66 18.34 5.32 18 6 C9.09 4.02 9.09 4.02 0 2 C0 1.34 0 0.68 0 0 Z " fill="#221512" transform="translate(770,313)"/>
<path d="M0 0 C4.79132712 0.49627682 8.02090287 2.80228492 11.8125 5.5625 C12.40998047 5.98724609 13.00746094 6.41199219 13.62304688 6.84960938 C15.08740533 7.89223259 16.54445735 8.94510452 18 10 C17.34 10.66 16.68 11.32 16 12 C13.89311385 10.56635564 11.78949074 9.12829067 9.6875 7.6875 C9.09259766 7.28337891 8.49769531 6.87925781 7.88476562 6.46289062 C5.02390921 4.49705074 2.32453048 2.5930683 0 0 Z " fill="#1A110F" transform="translate(459,235)"/>
<path d="M0 0 C0 0.33 0 0.66 0 1 C-10.395 2.485 -10.395 2.485 -21 4 C-19 1 -19 1 -16.171875 0.234375 C-15.04265625 0.07453125 -13.9134375 -0.0853125 -12.75 -0.25 C-11.63109375 -0.42015625 -10.5121875 -0.5903125 -9.359375 -0.765625 C-6.0246425 -0.99828076 -3.2586191 -0.69122223 0 0 Z " fill="#170E0B" transform="translate(312,205)"/>
<path d="M0 0 C0.66 0 1.32 0 2 0 C0.68 5.94 -0.64 11.88 -2 18 C-2.66 17.67 -3.32 17.34 -4 17 C-3.71561048 15.10306139 -3.42216208 13.20747973 -3.125 11.3125 C-2.96257812 10.25675781 -2.80015625 9.20101562 -2.6328125 8.11328125 C-2.04106931 5.20205086 -1.1968194 2.71044393 0 0 Z " fill="#190F0B" transform="translate(459,506)"/>
<path d="M0 0 C0.66 0.33 1.32 0.66 2 1 C-0.58265114 4.09011944 -3.48956659 5.21627918 -7.1875 6.6875 C-8.81751953 7.34298828 -8.81751953 7.34298828 -10.48046875 8.01171875 C-11.31191406 8.33785156 -12.14335938 8.66398438 -13 9 C-13.66 8.34 -14.32 7.68 -15 7 C-12.54595776 5.80283341 -10.08748321 4.6170654 -7.625 3.4375 C-6.57699219 2.92413086 -6.57699219 2.92413086 -5.5078125 2.40039062 C-3.69947784 1.53969288 -1.85148044 0.76347564 0 0 Z " fill="#1F1613" transform="translate(677,851)"/>
<path d="M0 0 C1.26457031 0.30164063 2.52914062 0.60328125 3.83203125 0.9140625 C5.10433594 1.21054688 6.37664063 1.50703125 7.6875 1.8125 C8.66332031 2.05226562 9.63914062 2.29203125 10.64453125 2.5390625 C10.64453125 3.1990625 10.64453125 3.8590625 10.64453125 4.5390625 C4.79173625 4.02423331 -0.68523245 3.08549058 -6.35546875 1.5390625 C-3.35546875 -0.4609375 -3.35546875 -0.4609375 0 0 Z " fill="#1B130D" transform="translate(801.35546875,201.4609375)"/>
<path d="M0 0 C1.44715727 3.87186448 0.5441918 6.8232328 -0.4375 10.75 C-0.72496094 11.92046875 -1.01242187 13.0909375 -1.30859375 14.296875 C-1.53675781 15.18890625 -1.76492188 16.0809375 -2 17 C-2.66 17 -3.32 17 -4 17 C-3.58411954 10.80481527 -2.39748106 5.73310689 0 0 Z " fill="#110705" transform="translate(520,732)"/>
<path d="M0 0 C0.66 0 1.32 0 2 0 C-1.09990301 10.09117362 -1.09990301 10.09117362 -4 14 C-4.66 14 -5.32 14 -6 14 C-4.16508812 9.25981099 -2.08058541 4.63586749 0 0 Z " fill="#1C1412" transform="translate(518,342)"/>
<path d="M0 0 C0.33 0 0.66 0 1 0 C1.33776684 1.7491497 1.67003671 3.49936145 2 5.25 C2.185625 6.22453125 2.37125 7.1990625 2.5625 8.203125 C3 11 3 11 3 15 C2.34 15 1.68 15 1 15 C-0.32558098 10.19476896 -1.36809815 6.03067466 -1 1 C-0.67 0.67 -0.34 0.34 0 0 Z " fill="#1F1412" transform="translate(151,331)"/>
<path d="M0 0 C5.95507399 0.3916035 10.62819824 1.37124595 16 4 C15.34 4.66 14.68 5.32 14 6 C9.38 4.35 4.76 2.7 0 1 C0 0.67 0 0.34 0 0 Z " fill="#1D1210" transform="translate(413,214)"/>
<path d="M0 0 C0.33 0 0.66 0 1 0 C0.56826496 6.15222436 -0.65405342 9.81917949 -4 15 C-4.66 15 -5.32 15 -6 15 C-4.40109514 9.80355921 -2.25861997 4.93387858 0 0 Z " fill="#1B1310" transform="translate(698,822)"/>
<path d="M0 0 C0.99 0 1.98 0 3 0 C4.82421875 2.625 4.82421875 2.625 6.6875 6 C7.31011719 7.11375 7.93273437 8.2275 8.57421875 9.375 C9.04472656 10.24125 9.51523437 11.1075 10 12 C9.01 12 8.02 12 7 12 C5.17578125 9.62890625 5.17578125 9.62890625 3.3125 6.5625 C2.68988281 5.55316406 2.06726563 4.54382813 1.42578125 3.50390625 C0 1 0 1 0 0 Z " fill="#1F1714" transform="translate(819,342)"/>
<path d="M0 0 C1.60785777 0.59427388 3.21117709 1.20083588 4.8125 1.8125 C6.15248047 2.31716797 6.15248047 2.31716797 7.51953125 2.83203125 C9.91924072 3.96197319 11.28423353 5.01062293 13 7 C12.01 7.495 12.01 7.495 11 8 C8.1796875 6.78515625 8.1796875 6.78515625 4.875 5.0625 C3.77929688 4.49660156 2.68359375 3.93070313 1.5546875 3.34765625 C0.71164062 2.90292969 -0.13140625 2.45820312 -1 2 C-0.67 1.34 -0.34 0.68 0 0 Z " fill="#201711" transform="translate(666,751)"/>
<path d="M0 0 C2.98479194 4.47718792 4 8.63824093 4 14 C3.34 14 2.68 14 2 14 C1.47216999 11.85587698 0.95290681 9.70964319 0.4375 7.5625 C0.00244141 5.77005859 0.00244141 5.77005859 -0.44140625 3.94140625 C-0.62574219 2.97074219 -0.81007813 2.00007813 -1 1 C-0.67 0.67 -0.34 0.34 0 0 Z " fill="#1E120F" transform="translate(926,295)"/>
<path d="M0 0 C4.9723422 1.49170266 9.41845739 3.60457417 14 6 C13.67 6.66 13.34 7.32 13 8 C11.01559518 7.24275352 9.03756995 6.46877038 7.0625 5.6875 C5.40927734 5.04361328 5.40927734 5.04361328 3.72265625 4.38671875 C1 3 1 3 0 0 Z " fill="#150B08" transform="translate(412,854)"/>
<path d="M0 0 C1.32 0.33 2.64 0.66 4 1 C4 1.66 4 2.32 4 3 C4.598125 3.2475 5.19625 3.495 5.8125 3.75 C8.28647521 5.16370012 9.43370255 6.65055383 11 9 C8 9 8 9 5.95703125 7.28515625 C5.24933594 6.55167969 4.54164063 5.81820313 3.8125 5.0625 C3.09707031 4.33160156 2.38164063 3.60070312 1.64453125 2.84765625 C0 1 0 1 0 0 Z " fill="#20120F" transform="translate(570,358)"/>
<path d="M0 0 C0 0.66 0 1.32 0 2 C-3.96 3.65 -7.92 5.3 -12 7 C-12 6.01 -12 5.02 -12 4 C-10.3767313 3.3291288 -8.75132422 2.66342971 -7.125 2 C-6.22007812 1.62875 -5.31515625 1.2575 -4.3828125 0.875 C-2 0 -2 0 0 0 Z " fill="#201311" transform="translate(296,324)"/>
<path d="M0 0 C5.62541841 0.45003347 8.61487125 1.68441485 13 5 C12.34 5.66 11.68 6.32 11 7 C7.37 5.02 3.74 3.04 0 1 C0 0.67 0 0.34 0 0 Z " fill="#241411" transform="translate(796,321)"/>
<path d="M0 0 C0.66 0 1.32 0 2 0 C1.27991594 4.60853797 -0.31295939 8.67237409 -2 13 C-2.66 12.01 -3.32 11.02 -4 10 C-3.3203125 7.51953125 -3.3203125 7.51953125 -2.125 4.8125 C-1.73570312 3.91144531 -1.34640625 3.01039063 -0.9453125 2.08203125 C-0.63335938 1.39496094 -0.32140625 0.70789063 0 0 Z " fill="#1C100D" transform="translate(564,294)"/>
<path d="M0 0 C3 1 3 1 4.6875 3.75 C5.93950669 6.85020705 6.28970125 8.71671912 6 12 C3.25207517 8.59780735 0 4.51535412 0 0 Z " fill="#1B110D" transform="translate(693,775)"/>
<path d="M0 0 C0.66 0.33 1.32 0.66 2 1 C-0.31 4.63 -2.62 8.26 -5 12 C-5.66 11.34 -6.32 10.68 -7 10 C-3.535 5.05 -3.535 5.05 0 0 Z " fill="#1D130F" transform="translate(667,347)"/>
<path d="M0 0 C4.62 0 9.24 0 14 0 C13.67 0.66 13.34 1.32 13 2 C10.35139573 2.59355614 7.70802678 2.74209269 5 3 C5 2.67 5 2.34 5 2 C3.35 1.67 1.7 1.34 0 1 C0 0.67 0 0.34 0 0 Z " fill="#231614" transform="translate(613,378)"/>
<path d="M0 0 C9.59453303 1.74259681 9.59453303 1.74259681 13 5 C5.375 4.125 5.375 4.125 2 3 C2 2.34 2 1.68 2 1 C1.34 0.67 0.68 0.34 0 0 Z " fill="#1F1513" transform="translate(378,322)"/>
<path d="M0 0 C3.63 1.32 7.26 2.64 11 4 C10.67 4.66 10.34 5.32 10 6 C8.5164999 5.57742724 7.03823576 5.13643678 5.5625 4.6875 C4.73878906 4.44386719 3.91507813 4.20023438 3.06640625 3.94921875 C2.04353516 3.47935547 2.04353516 3.47935547 1 3 C0.67 2.01 0.34 1.02 0 0 Z " fill="#1E110C" transform="translate(838,213)"/>
<path d="M0 0 C0 3.36403475 -0.61880053 4.40092917 -2.375 7.1875 C-2.81585937 7.90292969 -3.25671875 8.61835938 -3.7109375 9.35546875 C-4.13632812 9.89816406 -4.56171875 10.44085938 -5 11 C-5.66 11 -6.32 11 -7 11 C-6.40716379 7.60807637 -5.23256811 5.7892243 -2.9375 3.25 C-2.38964844 2.63640625 -1.84179688 2.0228125 -1.27734375 1.390625 C-0.85582031 0.93171875 -0.43429687 0.4728125 0 0 Z " fill="#1D1310" transform="translate(588,259)"/>
<path d="M0 0 C0 0.99 0 1.98 0 3 C-1.96875 4.60546875 -1.96875 4.60546875 -4.5 6.1875 C-5.3353125 6.71730469 -6.170625 7.24710938 -7.03125 7.79296875 C-7.6809375 8.19128906 -8.330625 8.58960938 -9 9 C-9 8.01 -9 7.02 -9 6 C-7.03125 4.39453125 -7.03125 4.39453125 -4.5 2.8125 C-3.6646875 2.28269531 -2.829375 1.75289062 -1.96875 1.20703125 C-0.99421875 0.60955078 -0.99421875 0.60955078 0 0 Z " fill="#1B110E" transform="translate(211,239)"/>
<path d="M0 0 C4.95 0.99 4.95 0.99 10 2 C10 2.66 10 3.32 10 4 C6.7 3.67 3.4 3.34 0 3 C0 2.01 0 1.02 0 0 Z " fill="#1B120D" transform="translate(190,381)"/>
<path d="M0 0 C0.33 0.99 0.66 1.98 1 3 C-0.21484375 4.82421875 -0.21484375 4.82421875 -1.9375 6.6875 C-2.50339844 7.31011719 -3.06929687 7.93273437 -3.65234375 8.57421875 C-4.09707031 9.04472656 -4.54179687 9.51523437 -5 10 C-5.66 9.67 -6.32 9.34 -7 9 C-4.69 6.03 -2.38 3.06 0 0 Z " fill="#1A0D0B" transform="translate(177,268)"/>
<path d="M0 0 C0.66 0.33 1.32 0.66 2 1 C1.67 3.64 1.34 6.28 1 9 C0.01 9 -0.98 9 -2 9 C-1.34 6.03 -0.68 3.06 0 0 Z " fill="#241310" transform="translate(572,523)"/>
<path d="M0 0 C0.99 0.66 1.98 1.32 3 2 C1.73308493 2.67408308 0.46129251 3.33900497 -0.8125 4 C-1.52019531 4.37125 -2.22789062 4.7425 -2.95703125 5.125 C-5 6 -5 6 -8 6 C-8 5.34 -8 4.68 -8 4 C-5.36 2.68 -2.72 1.36 0 0 Z " fill="#140D0A" transform="translate(509,404)"/>
<path d="M0 0 C0.66 0.33 1.32 0.66 2 1 C1.71125 1.556875 1.4225 2.11375 1.125 2.6875 C-0.0413253 5.08494645 -1.0339881 7.51596939 -2 10 C-2.99 9.67 -3.98 9.34 -5 9 C-3.35 6.03 -1.7 3.06 0 0 Z " fill="#160F0C" transform="translate(571,281)"/>
<path d="M0 0 C4.02550319 1.3418344 4.88285636 3.4227573 7 7 C7 7.66 7 8.32 7 9 C2.97449681 7.6581656 2.11714364 5.5772427 0 2 C0 1.34 0 0.68 0 0 Z " fill="#1B100D" transform="translate(502,274)"/>
<path d="M0 0 C0.33 0.66 0.66 1.32 1 2 C1.61875 2.28875 2.2375 2.5775 2.875 2.875 C5.36796335 4.19480413 6.45147781 5.67721672 8 8 C5.62051228 7.82374165 4.29774151 7.30280227 2.62109375 5.59765625 C1.37884514 4.09350908 0.18623944 2.54870149 -1 1 C-0.67 0.67 -0.34 0.34 0 0 Z " fill="#180E0A" transform="translate(483,251)"/>
<path d="M0 0 C4.95 1.98 4.95 1.98 10 4 C10 4.66 10 5.32 10 6 C8.5164999 5.57742724 7.03823576 5.13643678 5.5625 4.6875 C4.73878906 4.44386719 3.91507812 4.20023438 3.06640625 3.94921875 C2.04353516 3.47935547 2.04353516 3.47935547 1 3 C0.67 2.01 0.34 1.02 0 0 Z " fill="#1F150E" transform="translate(431,219)"/>
<path d="M0 0 C3.3 1.65 6.6 3.3 10 5 C5.23374833 6.19156292 4.12120649 5.3415946 0 3 C0 2.01 0 1.02 0 0 Z " fill="#211311" transform="translate(433,371)"/>
<path d="M0 0 C0 0.33 0 0.66 0 1 C-1.45463481 1.38909985 -2.91391207 1.76088029 -4.375 2.125 C-5.59316406 2.43824219 -5.59316406 2.43824219 -6.8359375 2.7578125 C-7.55007813 2.83773438 -8.26421875 2.91765625 -9 3 C-9.66 2.34 -10.32 1.68 -11 1 C-6.92630576 -1.03684712 -4.41062136 -1.0257259 0 0 Z " fill="#1D1310" transform="translate(309,322)"/>
<path d="M0 0 C3 1 3 1 4.25 3.3125 C5.04631835 6.16597407 4.8214856 7.24802325 4 10 C3.32845067 8.71086513 2.66291141 7.41859796 2 6.125 C1.62875 5.40570313 1.2575 4.68640625 0.875 3.9453125 C0 2 0 2 0 0 Z " fill="#160C0A" transform="translate(513,293)"/>
<path d="M0 0 C3.39417765 3.12621626 5.6062718 5.56541027 7 10 C4.66666667 7.66666667 2.33333333 5.33333333 0 3 C0 2.01 0 1.02 0 0 Z " fill="#19100D" transform="translate(492,260)"/>
<path d="M0 0 C0 0.66 0 1.32 0 2 C-1.96147874 3.38938077 -3.96166576 4.7260411 -6 6 C-6.66 5.67 -7.32 5.34 -8 5 C-2.25 0 -2.25 0 0 0 Z M-10 6 C-9.34 6.33 -8.68 6.66 -8 7 C-8.99 7 -9.98 7 -11 7 C-10.67 6.67 -10.34 6.34 -10 6 Z " fill="#1E1513" transform="translate(609,242)"/>
<path d="M0 0 C0.99 0 1.98 0 3 0 C4.75 2.25 4.75 2.25 6 5 C5.67 6.32 5.34 7.64 5 9 C3.35 6.03 1.7 3.06 0 0 Z " fill="#1E1512" transform="translate(912,272)"/>
<path d="M0 0 C0 0.66 0 1.32 0 2 C-4.15267176 5.11450382 -4.15267176 5.11450382 -7.3125 4.6875 C-7.869375 4.460625 -8.42625 4.23375 -9 4 C-2.25 0 -2.25 0 0 0 Z " fill="#1B1210" transform="translate(498,371)"/>
<path d="M0 0 C-1.39332574 3.36720387 -2.9789286 4.9859524 -6 7 C-6 4 -6 4 -4.125 1.8125 C-2 0 -2 0 0 0 Z " fill="#18110C" transform="translate(509,361)"/>
<path d="M0 0 C0.66 0 1.32 0 2 0 C2.99 2.64 3.98 5.28 5 8 C4.01 8.495 4.01 8.495 3 9 C0 3.375 0 3.375 0 0 Z " fill="#1F110F" transform="translate(921,286)"/>
<path d="M0 0 C0.99 0.495 0.99 0.495 2 1 C2 1.66 2 2.32 2 3 C2.66 3 3.32 3 4 3 C4.66 4.65 5.32 6.3 6 8 C2.57701423 6.85900474 1.85241234 5.99914379 0 3 C0 2.01 0 1.02 0 0 Z " fill="#1A130F" transform="translate(161,360)"/>
<path d="M0 0 C2.5654594 2.5654594 2.54046087 4.47686668 3 8 C2.01 8.495 2.01 8.495 1 9 C-1.125 2.25 -1.125 2.25 0 0 Z " fill="#1A0F0B" transform="translate(520,309)"/>
<path d="M0 0 C0.8125 1.6875 0.8125 1.6875 1 4 C-1.4375 6.75 -1.4375 6.75 -4 9 C-4 5.00095031 -2.27413033 3.19799578 0 0 Z " fill="#1C1310" transform="translate(578,271)"/>
<path d="M0 0 C2.79828356 0.38597015 3.8205884 0.80136573 5.75 2.9375 C7 5 7 5 7 7 C3.17053157 5.54744301 1.87949705 3.57104439 0 0 Z " fill="#1E1411" transform="translate(903,260)"/>
<path d="M0 0 C3.625 -0.1875 3.625 -0.1875 7 0 C6.67 0.66 6.34 1.32 6 2 C3.35139573 2.59355614 0.70802678 2.74209269 -2 3 C-1.34 2.01 -0.68 1.02 0 0 Z " fill="#1E1310" transform="translate(293,206)"/>
</svg>
