<svg id="Illustrations" xmlns="http://www.w3.org/2000/svg" width="480" height="480" viewBox="0 0 480 480"><g><path d="M186.33,412.88s38.39-144.71,5.85-154c-35.01-10-37.19,83.69-5.85,154Z" fill="#2c3b5e" stroke="#2c3b5e" stroke-miterlimit="10" stroke-width="3"/><path d="M183.71,415.2s-73.19-15.11-63.89-54.63c9.3-39.52,63.89,54.63,63.89,54.63Z" fill="#2c3b5e" stroke="#2c3b5e" stroke-miterlimit="10" stroke-width="3"/></g><g><g><path d="M237.94,138.61c-.75,0-1.36.61-1.36,1.36s.61,1.36,1.36,1.36,1.36-.61,1.36-1.36-.61-1.36-1.36-1.36Z" fill="#2c3b5e"/><path d="M237.94,145.5c-.75,0-1.36.61-1.36,1.36s.61,1.36,1.36,1.36,1.36-.61,1.36-1.36-.61-1.36-1.36-1.36Z" fill="#2c3b5e"/><path d="M237.94,152.39c-.75,0-1.36.61-1.36,1.36s.61,1.36,1.36,1.36,1.36-.61,1.36-1.36-.61-1.36-1.36-1.36Z" fill="#2c3b5e"/><path d="M237.94,159.27c-.75,0-1.36.61-1.36,1.36s.61,1.36,1.36,1.36,1.36-.61,1.36-1.36-.61-1.36-1.36-1.36Z" fill="#2c3b5e"/><path d="M225.33,138.61c-.75,0-1.36.61-1.36,1.36s.61,1.36,1.36,1.36,1.36-.61,1.36-1.36-.61-1.36-1.36-1.36Z" fill="#2c3b5e"/><path d="M225.33,145.5c-.75,0-1.36.61-1.36,1.36s.61,1.36,1.36,1.36,1.36-.61,1.36-1.36-.61-1.36-1.36-1.36Z" fill="#2c3b5e"/><path d="M225.33,152.39c-.75,0-1.36.61-1.36,1.36s.61,1.36,1.36,1.36,1.36-.61,1.36-1.36-.61-1.36-1.36-1.36Z" fill="#2c3b5e"/><path d="M231.63,138.61c-.75,0-1.36.61-1.36,1.36s.61,1.36,1.36,1.36,1.36-.61,1.36-1.36-.61-1.36-1.36-1.36Z" fill="#2c3b5e"/><path d="M231.63,145.5c-.75,0-1.36.61-1.36,1.36s.61,1.36,1.36,1.36,1.36-.61,1.36-1.36-.61-1.36-1.36-1.36Z" fill="#2c3b5e"/><path d="M231.63,152.39c-.75,0-1.36.61-1.36,1.36s.61,1.36,1.36,1.36,1.36-.61,1.36-1.36-.61-1.36-1.36-1.36Z" fill="#2c3b5e"/><path d="M231.63,159.27c-.75,0-1.36.61-1.36,1.36s.61,1.36,1.36,1.36,1.36-.61,1.36-1.36-.61-1.36-1.36-1.36Z" fill="#2c3b5e"/><path d="M237.94,187.07c-.75,0-1.36.61-1.36,1.36s.61,1.36,1.36,1.36,1.36-.61,1.36-1.36-.61-1.36-1.36-1.36Z" fill="#2c3b5e"/><path d="M237.94,193.95c-.75,0-1.36.61-1.36,1.36s.61,1.36,1.36,1.36,1.36-.61,1.36-1.36-.61-1.36-1.36-1.36Z" fill="#2c3b5e"/><path d="M237.94,200.84c-.75,0-1.36.61-1.36,1.36s.61,1.36,1.36,1.36,1.36-.61,1.36-1.36-.61-1.36-1.36-1.36Z" fill="#2c3b5e"/><path d="M237.94,207.73c-.75,0-1.36.61-1.36,1.36s.61,1.36,1.36,1.36,1.36-.61,1.36-1.36-.61-1.36-1.36-1.36Z" fill="#2c3b5e"/><path d="M331.86,145.5c-.75,0-1.36.61-1.36,1.36s.61,1.36,1.36,1.36,1.36-.61,1.36-1.36-.61-1.36-1.36-1.36Z" fill="#2c3b5e"/><path d="M331.86,152.39c-.75,0-1.36.61-1.36,1.36s.61,1.36,1.36,1.36,1.36-.61,1.36-1.36-.61-1.36-1.36-1.36Z" fill="#2c3b5e"/><path d="M331.86,159.27c-.75,0-1.36.61-1.36,1.36s.61,1.36,1.36,1.36,1.36-.61,1.36-1.36-.61-1.36-1.36-1.36Z" fill="#2c3b5e"/><path d="M325.56,138.61c-.75,0-1.36.61-1.36,1.36s.61,1.36,1.36,1.36,1.36-.61,1.36-1.36-.61-1.36-1.36-1.36Z" fill="#2c3b5e"/><path d="M325.56,145.5c-.75,0-1.36.61-1.36,1.36s.61,1.36,1.36,1.36,1.36-.61,1.36-1.36-.61-1.36-1.36-1.36Z" fill="#2c3b5e"/><path d="M325.56,152.39c-.75,0-1.36.61-1.36,1.36s.61,1.36,1.36,1.36,1.36-.61,1.36-1.36-.61-1.36-1.36-1.36Z" fill="#2c3b5e"/><path d="M325.56,159.27c-.75,0-1.36.61-1.36,1.36s.61,1.36,1.36,1.36,1.36-.61,1.36-1.36-.61-1.36-1.36-1.36Z" fill="#2c3b5e"/><path d="M319.25,131.72c-.75,0-1.36.61-1.36,1.36s.61,1.36,1.36,1.36,1.36-.61,1.36-1.36-.61-1.36-1.36-1.36Z" fill="#2c3b5e"/><path d="M319.25,138.61c-.75,0-1.36.61-1.36,1.36s.61,1.36,1.36,1.36,1.36-.61,1.36-1.36-.61-1.36-1.36-1.36Z" fill="#2c3b5e"/><path d="M319.25,145.5c-.75,0-1.36.61-1.36,1.36s.61,1.36,1.36,1.36,1.36-.61,1.36-1.36-.61-1.36-1.36-1.36Z" fill="#2c3b5e"/><path d="M319.25,152.39c-.75,0-1.36.61-1.36,1.36s.61,1.36,1.36,1.36,1.36-.61,1.36-1.36-.61-1.36-1.36-1.36Z" fill="#2c3b5e"/><path d="M319.25,159.27c-.75,0-1.36.61-1.36,1.36s.61,1.36,1.36,1.36,1.36-.61,1.36-1.36-.61-1.36-1.36-1.36Z" fill="#2c3b5e"/><path d="M312.94,131.72c-.75,0-1.36.61-1.36,1.36s.61,1.36,1.36,1.36,1.36-.61,1.36-1.36-.61-1.36-1.36-1.36Z" fill="#2c3b5e"/><path d="M312.94,138.61c-.75,0-1.36.61-1.36,1.36s.61,1.36,1.36,1.36,1.36-.61,1.36-1.36-.61-1.36-1.36-1.36Z" fill="#2c3b5e"/><path d="M312.94,145.5c-.75,0-1.36.61-1.36,1.36s.61,1.36,1.36,1.36,1.36-.61,1.36-1.36-.61-1.36-1.36-1.36Z" fill="#2c3b5e"/><path d="M312.94,152.39c-.75,0-1.36.61-1.36,1.36s.61,1.36,1.36,1.36,1.36-.61,1.36-1.36-.61-1.36-1.36-1.36Z" fill="#2c3b5e"/><path d="M312.94,159.27c-.75,0-1.36.61-1.36,1.36s.61,1.36,1.36,1.36,1.36-.61,1.36-1.36-.61-1.36-1.36-1.36Z" fill="#2c3b5e"/><path d="M306.63,124.83c-.75,0-1.36.61-1.36,1.36s.61,1.36,1.36,1.36,1.36-.61,1.36-1.36-.61-1.36-1.36-1.36Z" fill="#2c3b5e"/><path d="M306.63,131.72c-.75,0-1.36.61-1.36,1.36s.61,1.36,1.36,1.36,1.36-.61,1.36-1.36-.61-1.36-1.36-1.36Z" fill="#2c3b5e"/><path d="M306.63,138.61c-.75,0-1.36.61-1.36,1.36s.61,1.36,1.36,1.36,1.36-.61,1.36-1.36-.61-1.36-1.36-1.36Z" fill="#2c3b5e"/><path d="M306.63,145.5c-.75,0-1.36.61-1.36,1.36s.61,1.36,1.36,1.36,1.36-.61,1.36-1.36-.61-1.36-1.36-1.36Z" fill="#2c3b5e"/><path d="M306.63,152.39c-.75,0-1.36.61-1.36,1.36s.61,1.36,1.36,1.36,1.36-.61,1.36-1.36-.61-1.36-1.36-1.36Z" fill="#2c3b5e"/><path d="M300.33,124.83c-.75,0-1.36.61-1.36,1.36s.61,1.36,1.36,1.36,1.36-.61,1.36-1.36-.61-1.36-1.36-1.36Z" fill="#2c3b5e"/><path d="M300.33,131.72c-.75,0-1.36.61-1.36,1.36s.61,1.36,1.36,1.36,1.36-.61,1.36-1.36-.61-1.36-1.36-1.36Z" fill="#2c3b5e"/><path d="M300.33,138.61c-.75,0-1.36.61-1.36,1.36s.61,1.36,1.36,1.36,1.36-.61,1.36-1.36-.61-1.36-1.36-1.36Z" fill="#2c3b5e"/><path d="M300.33,145.5c-.75,0-1.36.61-1.36,1.36s.61,1.36,1.36,1.36,1.36-.61,1.36-1.36-.61-1.36-1.36-1.36Z" fill="#2c3b5e"/><path d="M300.33,152.39c-.75,0-1.36.61-1.36,1.36s.61,1.36,1.36,1.36,1.36-.61,1.36-1.36-.61-1.36-1.36-1.36Z" fill="#2c3b5e"/><path d="M294.02,124.83c-.75,0-1.36.61-1.36,1.36s.61,1.36,1.36,1.36,1.36-.61,1.36-1.36-.61-1.36-1.36-1.36Z" fill="#2c3b5e"/><path d="M294.02,131.72c-.75,0-1.36.61-1.36,1.36s.61,1.36,1.36,1.36,1.36-.61,1.36-1.36-.61-1.36-1.36-1.36Z" fill="#2c3b5e"/><path d="M294.02,138.61c-.75,0-1.36.61-1.36,1.36s.61,1.36,1.36,1.36,1.36-.61,1.36-1.36-.61-1.36-1.36-1.36Z" fill="#2c3b5e"/><path d="M294.02,145.5c-.75,0-1.36.61-1.36,1.36s.61,1.36,1.36,1.36,1.36-.61,1.36-1.36-.61-1.36-1.36-1.36Z" fill="#2c3b5e"/><path d="M294.02,152.39c-.75,0-1.36.61-1.36,1.36s.61,1.36,1.36,1.36,1.36-.61,1.36-1.36-.61-1.36-1.36-1.36Z" fill="#2c3b5e"/><path d="M287.71,124.83c-.75,0-1.36.61-1.36,1.36s.61,1.36,1.36,1.36,1.36-.61,1.36-1.36-.61-1.36-1.36-1.36Z" fill="#2c3b5e"/><path d="M287.71,131.72c-.75,0-1.36.61-1.36,1.36s.61,1.36,1.36,1.36,1.36-.61,1.36-1.36-.61-1.36-1.36-1.36Z" fill="#2c3b5e"/><path d="M287.71,138.61c-.75,0-1.36.61-1.36,1.36s.61,1.36,1.36,1.36,1.36-.61,1.36-1.36-.61-1.36-1.36-1.36Z" fill="#2c3b5e"/><path d="M287.71,145.5c-.75,0-1.36.61-1.36,1.36s.61,1.36,1.36,1.36,1.36-.61,1.36-1.36-.61-1.36-1.36-1.36Z" fill="#2c3b5e"/><path d="M287.71,152.39c-.75,0-1.36.61-1.36,1.36s.61,1.36,1.36,1.36,1.36-.61,1.36-1.36-.61-1.36-1.36-1.36Z" fill="#2c3b5e"/><path d="M281.41,124.83c-.75,0-1.36.61-1.36,1.36s.61,1.36,1.36,1.36,1.36-.61,1.36-1.36-.61-1.36-1.36-1.36Z" fill="#2c3b5e"/><path d="M281.41,131.72c-.75,0-1.36.61-1.36,1.36s.61,1.36,1.36,1.36,1.36-.61,1.36-1.36-.61-1.36-1.36-1.36Z" fill="#2c3b5e"/><path d="M281.41,138.61c-.75,0-1.36.61-1.36,1.36s.61,1.36,1.36,1.36,1.36-.61,1.36-1.36-.61-1.36-1.36-1.36Z" fill="#2c3b5e"/><path d="M281.41,145.5c-.75,0-1.36.61-1.36,1.36s.61,1.36,1.36,1.36,1.36-.61,1.36-1.36-.61-1.36-1.36-1.36Z" fill="#2c3b5e"/><path d="M281.41,152.39c-.75,0-1.36.61-1.36,1.36s.61,1.36,1.36,1.36,1.36-.61,1.36-1.36-.61-1.36-1.36-1.36Z" fill="#2c3b5e"/><path d="M275.1,124.83c-.75,0-1.36.61-1.36,1.36s.61,1.36,1.36,1.36,1.36-.61,1.36-1.36-.61-1.36-1.36-1.36Z" fill="#2c3b5e"/><path d="M275.1,131.72c-.75,0-1.36.61-1.36,1.36s.61,1.36,1.36,1.36,1.36-.61,1.36-1.36-.61-1.36-1.36-1.36Z" fill="#2c3b5e"/><path d="M275.1,138.61c-.75,0-1.36.61-1.36,1.36s.61,1.36,1.36,1.36,1.36-.61,1.36-1.36-.61-1.36-1.36-1.36Z" fill="#2c3b5e"/><path d="M275.1,145.5c-.75,0-1.36.61-1.36,1.36s.61,1.36,1.36,1.36,1.36-.61,1.36-1.36-.61-1.36-1.36-1.36Z" fill="#2c3b5e"/><path d="M268.79,124.83c-.75,0-1.36.61-1.36,1.36s.61,1.36,1.36,1.36,1.36-.61,1.36-1.36-.61-1.36-1.36-1.36Z" fill="#2c3b5e"/><path d="M268.79,131.72c-.75,0-1.36.61-1.36,1.36s.61,1.36,1.36,1.36,1.36-.61,1.36-1.36-.61-1.36-1.36-1.36Z" fill="#2c3b5e"/><path d="M268.79,138.61c-.75,0-1.36.61-1.36,1.36s.61,1.36,1.36,1.36,1.36-.61,1.36-1.36-.61-1.36-1.36-1.36Z" fill="#2c3b5e"/><path d="M268.79,145.5c-.75,0-1.36.61-1.36,1.36s.61,1.36,1.36,1.36,1.36-.61,1.36-1.36-.61-1.36-1.36-1.36Z" fill="#2c3b5e"/><path d="M262.48,124.83c-.75,0-1.36.61-1.36,1.36s.61,1.36,1.36,1.36,1.36-.61,1.36-1.36-.61-1.36-1.36-1.36Z" fill="#2c3b5e"/><path d="M262.48,131.72c-.75,0-1.36.61-1.36,1.36s.61,1.36,1.36,1.36,1.36-.61,1.36-1.36-.61-1.36-1.36-1.36Z" fill="#2c3b5e"/><path d="M262.48,138.61c-.75,0-1.36.61-1.36,1.36s.61,1.36,1.36,1.36,1.36-.61,1.36-1.36-.61-1.36-1.36-1.36Z" fill="#2c3b5e"/><path d="M262.48,145.5c-.75,0-1.36.61-1.36,1.36s.61,1.36,1.36,1.36,1.36-.61,1.36-1.36-.61-1.36-1.36-1.36Z" fill="#2c3b5e"/><path d="M262.48,152.39c-.75,0-1.36.61-1.36,1.36s.61,1.36,1.36,1.36,1.36-.61,1.36-1.36-.61-1.36-1.36-1.36Z" fill="#2c3b5e"/><path d="M262.48,159.27c-.75,0-1.36.61-1.36,1.36s.61,1.36,1.36,1.36,1.36-.61,1.36-1.36-.61-1.36-1.36-1.36Z" fill="#2c3b5e"/><path d="M262.48,166.16c-.75,0-1.36.61-1.36,1.36s.61,1.36,1.36,1.36,1.36-.61,1.36-1.36-.61-1.36-1.36-1.36Z" fill="#2c3b5e"/><path d="M262.48,173.05c-.75,0-1.36.61-1.36,1.36s.61,1.36,1.36,1.36,1.36-.61,1.36-1.36-.61-1.36-1.36-1.36Z" fill="#2c3b5e"/><path d="M256.18,124.83c-.75,0-1.36.61-1.36,1.36s.61,1.36,1.36,1.36,1.36-.61,1.36-1.36-.61-1.36-1.36-1.36Z" fill="#2c3b5e"/><path d="M256.18,131.72c-.75,0-1.36.61-1.36,1.36s.61,1.36,1.36,1.36,1.36-.61,1.36-1.36-.61-1.36-1.36-1.36Z" fill="#2c3b5e"/><path d="M256.18,138.61c-.75,0-1.36.61-1.36,1.36s.61,1.36,1.36,1.36,1.36-.61,1.36-1.36-.61-1.36-1.36-1.36Z" fill="#2c3b5e"/><path d="M256.18,145.5c-.75,0-1.36.61-1.36,1.36s.61,1.36,1.36,1.36,1.36-.61,1.36-1.36-.61-1.36-1.36-1.36Z" fill="#2c3b5e"/><path d="M256.18,152.39c-.75,0-1.36.61-1.36,1.36s.61,1.36,1.36,1.36,1.36-.61,1.36-1.36-.61-1.36-1.36-1.36Z" fill="#2c3b5e"/><path d="M256.18,159.27c-.75,0-1.36.61-1.36,1.36s.61,1.36,1.36,1.36,1.36-.61,1.36-1.36-.61-1.36-1.36-1.36Z" fill="#2c3b5e"/><path d="M256.18,166.16c-.75,0-1.36.61-1.36,1.36s.61,1.36,1.36,1.36,1.36-.61,1.36-1.36-.61-1.36-1.36-1.36Z" fill="#2c3b5e"/><path d="M256.18,173.05c-.75,0-1.36.61-1.36,1.36s.61,1.36,1.36,1.36,1.36-.61,1.36-1.36-.61-1.36-1.36-1.36Z" fill="#2c3b5e"/><path d="M249.87,131.72c-.75,0-1.36.61-1.36,1.36s.61,1.36,1.36,1.36,1.36-.61,1.36-1.36-.61-1.36-1.36-1.36Z" fill="#2c3b5e"/><path d="M249.87,124.83c-.75,0-1.36.61-1.36,1.36s.61,1.36,1.36,1.36,1.36-.61,1.36-1.36-.61-1.36-1.36-1.36Z" fill="#2c3b5e"/><path d="M243.56,131.72c-.75,0-1.36.61-1.36,1.36s.61,1.36,1.36,1.36,1.36-.61,1.36-1.36-.61-1.36-1.36-1.36Z" fill="#2c3b5e"/><path d="M243.56,124.83c-.75,0-1.36.61-1.36,1.36s.61,1.36,1.36,1.36,1.36-.61,1.36-1.36-.61-1.36-1.36-1.36Z" fill="#2c3b5e"/><path d="M237.94,131.72c-.75,0-1.36.61-1.36,1.36s.61,1.36,1.36,1.36,1.36-.61,1.36-1.36-.61-1.36-1.36-1.36Z" fill="#2c3b5e"/><path d="M249.87,138.61c-.75,0-1.36.61-1.36,1.36s.61,1.36,1.36,1.36,1.36-.61,1.36-1.36-.61-1.36-1.36-1.36Z" fill="#2c3b5e"/><path d="M249.87,145.5c-.75,0-1.36.61-1.36,1.36s.61,1.36,1.36,1.36,1.36-.61,1.36-1.36-.61-1.36-1.36-1.36Z" fill="#2c3b5e"/><path d="M249.87,152.39c-.75,0-1.36.61-1.36,1.36s.61,1.36,1.36,1.36,1.36-.61,1.36-1.36-.61-1.36-1.36-1.36Z" fill="#2c3b5e"/><path d="M249.87,159.27c-.75,0-1.36.61-1.36,1.36s.61,1.36,1.36,1.36,1.36-.61,1.36-1.36-.61-1.36-1.36-1.36Z" fill="#2c3b5e"/><path d="M249.87,166.16c-.75,0-1.36.61-1.36,1.36s.61,1.36,1.36,1.36,1.36-.61,1.36-1.36-.61-1.36-1.36-1.36Z" fill="#2c3b5e"/><path d="M249.87,173.05c-.75,0-1.36.61-1.36,1.36s.61,1.36,1.36,1.36,1.36-.61,1.36-1.36-.61-1.36-1.36-1.36Z" fill="#2c3b5e"/><path d="M243.56,138.61c-.75,0-1.36.61-1.36,1.36s.61,1.36,1.36,1.36,1.36-.61,1.36-1.36-.61-1.36-1.36-1.36Z" fill="#2c3b5e"/><path d="M243.56,145.5c-.75,0-1.36.61-1.36,1.36s.61,1.36,1.36,1.36,1.36-.61,1.36-1.36-.61-1.36-1.36-1.36Z" fill="#2c3b5e"/><path d="M243.56,152.39c-.75,0-1.36.61-1.36,1.36s.61,1.36,1.36,1.36,1.36-.61,1.36-1.36-.61-1.36-1.36-1.36Z" fill="#2c3b5e"/><path d="M243.56,159.27c-.75,0-1.36.61-1.36,1.36s.61,1.36,1.36,1.36,1.36-.61,1.36-1.36-.61-1.36-1.36-1.36Z" fill="#2c3b5e"/><path d="M243.56,166.16c-.75,0-1.36.61-1.36,1.36s.61,1.36,1.36,1.36,1.36-.61,1.36-1.36-.61-1.36-1.36-1.36Z" fill="#2c3b5e"/><path d="M243.56,173.05c-.75,0-1.36.61-1.36,1.36s.61,1.36,1.36,1.36,1.36-.61,1.36-1.36-.61-1.36-1.36-1.36Z" fill="#2c3b5e"/><path d="M262.48,180.18c-.75,0-1.36.61-1.36,1.36s.61,1.36,1.36,1.36,1.36-.61,1.36-1.36-.61-1.36-1.36-1.36Z" fill="#2c3b5e"/><path d="M262.48,187.07c-.75,0-1.36.61-1.36,1.36s.61,1.36,1.36,1.36,1.36-.61,1.36-1.36-.61-1.36-1.36-1.36Z" fill="#2c3b5e"/><path d="M256.18,180.18c-.75,0-1.36.61-1.36,1.36s.61,1.36,1.36,1.36,1.36-.61,1.36-1.36-.61-1.36-1.36-1.36Z" fill="#2c3b5e"/><path d="M256.18,187.07c-.75,0-1.36.61-1.36,1.36s.61,1.36,1.36,1.36,1.36-.61,1.36-1.36-.61-1.36-1.36-1.36Z" fill="#2c3b5e"/><path d="M256.18,193.95c-.75,0-1.36.61-1.36,1.36s.61,1.36,1.36,1.36,1.36-.61,1.36-1.36-.61-1.36-1.36-1.36Z" fill="#2c3b5e"/><path d="M256.18,200.84c-.75,0-1.36.61-1.36,1.36s.61,1.36,1.36,1.36,1.36-.61,1.36-1.36-.61-1.36-1.36-1.36Z" fill="#2c3b5e"/><path d="M256.18,207.73c-.75,0-1.36.61-1.36,1.36s.61,1.36,1.36,1.36,1.36-.61,1.36-1.36-.61-1.36-1.36-1.36Z" fill="#2c3b5e"/><path d="M249.87,180.18c-.75,0-1.36.61-1.36,1.36s.61,1.36,1.36,1.36,1.36-.61,1.36-1.36-.61-1.36-1.36-1.36Z" fill="#2c3b5e"/><path d="M249.87,187.07c-.75,0-1.36.61-1.36,1.36s.61,1.36,1.36,1.36,1.36-.61,1.36-1.36-.61-1.36-1.36-1.36Z" fill="#2c3b5e"/><path d="M249.87,193.95c-.75,0-1.36.61-1.36,1.36s.61,1.36,1.36,1.36,1.36-.61,1.36-1.36-.61-1.36-1.36-1.36Z" fill="#2c3b5e"/><path d="M249.87,200.84c-.75,0-1.36.61-1.36,1.36s.61,1.36,1.36,1.36,1.36-.61,1.36-1.36-.61-1.36-1.36-1.36Z" fill="#2c3b5e"/><path d="M249.87,207.73c-.75,0-1.36.61-1.36,1.36s.61,1.36,1.36,1.36,1.36-.61,1.36-1.36-.61-1.36-1.36-1.36Z" fill="#2c3b5e"/><path d="M243.56,180.18c-.75,0-1.36.61-1.36,1.36s.61,1.36,1.36,1.36,1.36-.61,1.36-1.36-.61-1.36-1.36-1.36Z" fill="#2c3b5e"/><path d="M243.56,187.07c-.75,0-1.36.61-1.36,1.36s.61,1.36,1.36,1.36,1.36-.61,1.36-1.36-.61-1.36-1.36-1.36Z" fill="#2c3b5e"/><path d="M243.56,193.95c-.75,0-1.36.61-1.36,1.36s.61,1.36,1.36,1.36,1.36-.61,1.36-1.36-.61-1.36-1.36-1.36Z" fill="#2c3b5e"/><path d="M243.56,200.84c-.75,0-1.36.61-1.36,1.36s.61,1.36,1.36,1.36,1.36-.61,1.36-1.36-.61-1.36-1.36-1.36Z" fill="#2c3b5e"/><path d="M243.56,207.73c-.75,0-1.36.61-1.36,1.36s.61,1.36,1.36,1.36,1.36-.61,1.36-1.36-.61-1.36-1.36-1.36Z" fill="#2c3b5e"/></g><g><path d="M307.89,150.08s12.86,41.29-14.6,57.36c-2.82,1.65-7.2,1.31-9.54,3.59-2.34,2.28-3.89,5.35-4.34,8.58" fill="none" stroke="#2c3b5e" stroke-miterlimit="10" stroke-width="3"/><path d="M292.39,215.66c-2.34,4.59-6.32,8.32-11.05,10.35" fill="none" stroke="#2c3b5e" stroke-miterlimit="10" stroke-width="3"/><path d="M299.39,217.42c-1.66,3.66-4.44,6.8-7.86,8.91" fill="none" stroke="#2c3b5e" stroke-miterlimit="10" stroke-width="3"/><path d="M306.88,218.76c-1.61,4.42-4.63,8.31-8.51,10.96" fill="none" stroke="#2c3b5e" stroke-miterlimit="10" stroke-width="3"/><path d="M308.55,226.01s39.45-29.95,27.02-69.4c-10.98-34.86-44.04-35.74-44.04-35.74" fill="none" stroke="#2c3b5e" stroke-miterlimit="10" stroke-width="3"/><polyline points="337.99 164.75 360.99 169.09 349.06 232.33 314.79 225.86" fill="none" stroke="#2c3b5e" stroke-miterlimit="10" stroke-width="3"/><polyline points="288.71 220.94 257.41 215.03 269.34 151.8 309.2 159.32" fill="none" stroke="#2c3b5e" stroke-miterlimit="10" stroke-width="3"/><path d="M310.9,164.75s16.6,3.97,25.32-5.9" fill="none" stroke="#2c3b5e" stroke-miterlimit="10" stroke-width="3"/><path d="M245.65,136.7l-12.07,73.31s14.03,3.27,24.78,0" fill="none" stroke="#2c3b5e" stroke-miterlimit="10" stroke-width="3"/><path d="M241.21,163.66c-27.9,13.22-54.92,6.22-85.89-49.49" fill="none" stroke="#2c3b5e" stroke-miterlimit="10" stroke-width="3"/><path d="M220.87,141.78c-22.96-3.54-29.13-23.09-29.13-23.09.15-3.75-1.25-7.45-3.34-10.57-2.08-3.13-5.65-5.38-9.41-5.31-1.9.04-4.02.89-4.59,2.7-.53,1.67.53,3.51,2,4.46s3.27,1.2,5.01,1.44" fill="none" stroke="#2c3b5e" stroke-miterlimit="10" stroke-width="3"/><path d="M178.99,102.82s-7.52-15.07-11.01-16.81c-3.49-1.74-6.54,5.34.98,17.65" fill="none" stroke="#2c3b5e" stroke-miterlimit="10" stroke-width="3"/><path d="M162.6,102.1s1.31,7.8,9.7,13.95" fill="none" stroke="#2c3b5e" stroke-miterlimit="10" stroke-width="3"/><path d="M158.39,108.35s3.05,7.23,8.41,11.66" fill="none" stroke="#2c3b5e" stroke-miterlimit="10" stroke-width="3"/><path d="M246.49,92.83s-9.21,38.65,28.24,32.14" fill="none" stroke="#2c3b5e" stroke-miterlimit="10" stroke-width="3"/><path d="M246.37,87.41c8.48-.24,16.88-2.78,24.08-7.27-1.32,7.71,1.04,16.02,5.81,22.22,0,0,3.9-5.32,8.41-3.17,4.51,2.15-.77,10.01-3.61,11.04,0,0-2.19,7.74,4,11.73" fill="none" stroke="#2c3b5e" stroke-miterlimit="10" stroke-width="3"/><path d="M245.22,101.67c-2.98-3.45-4.46-8.06-4.47-12.61-.02-6.86,3.26-13.58,8.43-18.09,5.17-4.51,12.11-6.82,18.97-6.7,4.21.07,8.41,1.02,12.24,2.78,2.37,1.09,4.65,2.52,6.19,4.62,2.17,2.96,2.59,6.81,2.94,10.46,4.91.95,9.58,3.89,12.42,8.01,3.68,5.33,4.45,12.09,5.09,18.54.64,6.45,1.38,13.2,5.02,18.57" fill="none" stroke="#2c3b5e" stroke-miterlimit="10" stroke-width="3"/><polyline points="258.93 98.21 256.9 107.22 262.13 108.67" fill="none" stroke="#2c3b5e" stroke-miterlimit="10" stroke-width="3"/><ellipse cx="265.85" cy="98.8" rx="1.95" ry="2.26" fill="#2c3b5e"/><ellipse cx="251.73" cy="98.8" rx="1.95" ry="2.26" fill="#2c3b5e"/><path d="M262.03,115.15s5.38.65,8.72-3.2" fill="none" stroke="#2c3b5e" stroke-miterlimit="10" stroke-width="3"/><path d="M240.75,211.46l-7.17,174.63s25.57,9.3,49.72,0" fill="none" stroke="#2c3b5e" stroke-miterlimit="10" stroke-width="3"/><path d="M267.79,248.37l15.51,144.71s33.88,5.94,54.59-2.84l-19.39-150.58" fill="none" stroke="#2c3b5e" stroke-miterlimit="10" stroke-width="3"/><path d="M292.41,394.71c-2.94,6.5-8.78,11.61-15.6,13.67v7.36h61.08l-4.68-23.83" fill="none" stroke="#2c3b5e" stroke-miterlimit="10" stroke-width="3"/><path d="M240.4,394.71c-2.94,6.5-8.78,11.61-15.6,13.67v7.36h61.08" fill="none" stroke="#2c3b5e" stroke-miterlimit="10" stroke-width="3"/><path d="M228.57,168.89s-4.6-8.71-4.6-18.81" fill="none" stroke="#2c3b5e" stroke-miterlimit="10" stroke-width="3"/></g></g></svg>