<svg id="Illustrations" xmlns="http://www.w3.org/2000/svg" width="480" height="480" viewBox="0 0 480 480"><polygon points="239.86 269.56 135.32 269.56 166.07 341.57 270.61 341.57 239.86 269.56" fill="none" stroke="#2c3b5e" stroke-miterlimit="10" stroke-width="3"/><polygon points="312.27 329.84 265.6 329.84 270.61 341.57 312.27 341.57 312.27 329.84" fill="none" stroke="#2c3b5e" stroke-miterlimit="10" stroke-width="3"/><path d="M274.41,328.86c-2.95-11.35,4.68-24.36,16.03-27.31,12.35-3.21,25.02,4.4,37.78,3.91,8.57-.33,16.91-4.55,22.26-11.25,5.35-6.7,7.6-15.77,6.02-24.2" fill="none" stroke="#2c3b5e" stroke-miterlimit="10" stroke-width="3"/><path d="M287.8,313.05s-5.87,6.27-4.25,16.79" fill="none" stroke="#2c3b5e" stroke-miterlimit="10" stroke-width="3"/><path d="M297.51,315.68s-4.45,3.03-4.25,14.16" fill="none" stroke="#2c3b5e" stroke-miterlimit="10" stroke-width="3"/><path d="M305.6,316.89s-4.25,7.08-2.02,12.95" fill="none" stroke="#2c3b5e" stroke-miterlimit="10" stroke-width="3"/><path d="M326.43,335.7s50.08,2.53,60.28-30.14c12.95-41.47-14.36-80.3-48.14-81.72" fill="none" stroke="#2c3b5e" stroke-miterlimit="10" stroke-width="3"/><path d="M285.17,233.23c-10.08,2.67-17.5,11.72-20.87,21.58-3.37,9.86-3.63,22.13-3.2,32.55l-12.54,1.82" fill="none" stroke="#2c3b5e" stroke-miterlimit="10" stroke-width="3"/><line x1="285.53" y1="260.26" x2="288.94" y2="301.32" fill="none" stroke="#2c3b5e" stroke-miterlimit="10" stroke-width="3"/><path d="M321.14,305.01s5.22,15.11,0,29.27" fill="none" stroke="#2c3b5e" stroke-miterlimit="10" stroke-width="3"/><path d="M273.78,174.62s-11.8,89.27,44.03,55.02" fill="none" stroke="#2c3b5e" stroke-miterlimit="10" stroke-width="3"/><path d="M297.31,237.47s11.6,25.8,36.41-3.29" fill="none" stroke="#2c3b5e" stroke-miterlimit="10" stroke-width="3"/><path d="M340.83,172.62c4.81-6.94,4-17.22-1.85-23.31-5.84-6.09-16.32-8.14-23.45-3.62-3.13-4.67-9.09-6.56-14.69-7.09-10.92-1.03-21.16,2.86-29.7,9.5-4.21,3.28-6.71,8.41-6.48,13.75,0,.03,0,.06,0,.09.14,2.94.94,5.94,2.78,8.24,2.71,3.4,7.32,4.81,11.67,4.69,4.34-.12,8.53-1.57,12.63-3.01-.41,1.06.41,2.68,1.15,3.89.7,1.13,2.17,2.65,3.3,3.36,5.94,3.72,13.79,4.15,20.11,1.14-1.19,5.46.26,11.7,3.16,16.48,1.79-.25,3.17-1.42,4.98-1.5,2.75-.12,5.85.07,7.24,2.98.56,1.17.63,2.52.32,3.78-.77,3.14-3.27,5.2-5.77,7.01-.76,5.06,1.51,10.34,5.97,12.84l7.43-11.46c4.38-5.51,8.22-11.75,9.21-18.72.99-6.97-2.13-15.17-8.03-19.02Z" fill="#2c3b5e" stroke="#2c3b5e" stroke-miterlimit="10" stroke-width="3"/><path d="M114.18,290.87c-18.88-5.66-33.71,12.71-28.32,30.85l45.85-.28s-2.79-26.15-17.53-30.58Z" fill="none" stroke="#2c3b5e" stroke-miterlimit="10" stroke-width="3"/><circle cx="92.06" cy="234.18" r="16.16" fill="none" stroke="#2c3b5e" stroke-miterlimit="10" stroke-width="3"/><circle cx="162.37" cy="203.68" r="12.96" fill="none" stroke="#2c3b5e" stroke-miterlimit="10" stroke-width="3"/><path d="M234.6,223.85l-20.63-12.54-31.02,29.8,11.87,19.15s8.2-9.71,8.14-9.91-5.18-8.03-5.18-8.03l14.56-14.83,11.8,5.75,10.45-9.39Z" fill="none" stroke="#2c3b5e" stroke-miterlimit="10" stroke-width="3"/><path d="M208.78,216.64s-13.69-4.57-20.97,1.38c-7.28,5.96,0,17.76,0,17.76" fill="none" stroke="#2c3b5e" stroke-miterlimit="10" stroke-width="3"/><polyline points="128.67 308.4 139.8 308.4 147.08 334.29 67.61 334.29 75.9 308.4 85.37 308.4" fill="none" stroke="#2c3b5e" stroke-miterlimit="10" stroke-width="3"/><circle cx="106.09" cy="308.4" r="4.85" fill="#2c3b5e"/><circle cx="91.39" cy="234.45" r="4.85" fill="#2c3b5e"/><circle cx="162.37" cy="203.68" r="3.66" fill="#2c3b5e"/><line x1="86.08" y1="249.2" x2="89.3" y2="299.43" fill="none" stroke="#2c3b5e" stroke-miterlimit="10" stroke-width="3"/><line x1="101.23" y1="247.49" x2="114.18" y2="290.87" fill="none" stroke="#2c3b5e" stroke-miterlimit="10" stroke-width="3"/><line x1="101.23" y1="221.82" x2="150.89" y2="197.69" fill="none" stroke="#2c3b5e" stroke-miterlimit="10" stroke-width="3"/><line x1="151.65" y1="210.97" x2="107.71" y2="237.47" fill="none" stroke="#2c3b5e" stroke-miterlimit="10" stroke-width="3"/><line x1="170.97" y1="213.36" x2="184.71" y2="227.23" fill="none" stroke="#2c3b5e" stroke-miterlimit="10" stroke-width="3"/><line x1="175.32" y1="203.68" x2="194.82" y2="214.96" fill="none" stroke="#2c3b5e" stroke-miterlimit="10" stroke-width="3"/><path d="M288.41,200.48l-1.43,14.99s3.52.48,7.48-.09" fill="none" stroke="#2c3b5e" stroke-miterlimit="10" stroke-width="3"/><path d="M297.31,223.85s6.47.98,13.15-7.7" fill="none" stroke="#2c3b5e" stroke-miterlimit="10" stroke-width="3"/><ellipse cx="297.7" cy="197.5" rx="2.43" ry="2.98" fill="#2c3b5e"/><ellipse cx="279.7" cy="198" rx="2.43" ry="2.98" fill="#2c3b5e"/><circle cx="227.93" cy="191.68" r="6.68" fill="none" stroke="#2c3b5e" stroke-miterlimit="10" stroke-width="3"/><circle cx="156.67" cy="241.96" r="5.53" fill="none" stroke="#2c3b5e" stroke-miterlimit="10" stroke-width="3"/><path d="M392.77,179.5c-10.84,0-19.62,8.06-19.62,18,0,3.08.85,5.98,2.34,8.52l-5.36,9.59,12.03-2.98c3.06,1.81,6.7,2.88,10.62,2.88,10.84,0,19.62-8.06,19.62-18s-8.78-18-19.62-18Z" fill="none" stroke="#2c3b5e" stroke-miterlimit="10" stroke-width="3"/><g><path d="M241.35,271.85c-.7,0-1.27.57-1.27,1.27s.57,1.27,1.27,1.27,1.27-.57,1.27-1.27-.57-1.27-1.27-1.27Z" fill="#2c3b5e"/><path d="M241.35,278.24c-.7,0-1.27.57-1.27,1.27s.57,1.27,1.27,1.27,1.27-.57,1.27-1.27-.57-1.27-1.27-1.27Z" fill="#2c3b5e"/><path d="M241.35,284.64c-.7,0-1.27.57-1.27,1.27s.57,1.27,1.27,1.27,1.27-.57,1.27-1.27-.57-1.27-1.27-1.27Z" fill="#2c3b5e"/><path d="M241.35,291.03c-.7,0-1.27.57-1.27,1.27s.57,1.27,1.27,1.27,1.27-.57,1.27-1.27-.57-1.27-1.27-1.27Z" fill="#2c3b5e"/><path d="M241.35,297.42c-.7,0-1.27.57-1.27,1.27s.57,1.27,1.27,1.27,1.27-.57,1.27-1.27-.57-1.27-1.27-1.27Z" fill="#2c3b5e"/><path d="M241.35,303.82c-.7,0-1.27.57-1.27,1.27s.57,1.27,1.27,1.27,1.27-.57,1.27-1.27-.57-1.27-1.27-1.27Z" fill="#2c3b5e"/><path d="M241.35,310.21c-.7,0-1.27.57-1.27,1.27s.57,1.27,1.27,1.27,1.27-.57,1.27-1.27-.57-1.27-1.27-1.27Z" fill="#2c3b5e"/><path d="M241.35,316.6c-.7,0-1.27.57-1.27,1.27s.57,1.27,1.27,1.27,1.27-.57,1.27-1.27-.57-1.27-1.27-1.27Z" fill="#2c3b5e"/><path d="M241.35,323c-.7,0-1.27.57-1.27,1.27s.57,1.27,1.27,1.27,1.27-.57,1.27-1.27-.57-1.27-1.27-1.27Z" fill="#2c3b5e"/><path d="M241.35,329.39c-.7,0-1.27.57-1.27,1.27s.57,1.27,1.27,1.27,1.27-.57,1.27-1.27-.57-1.27-1.27-1.27Z" fill="#2c3b5e"/><path d="M241.35,335.78c-.7,0-1.27.57-1.27,1.27s.57,1.27,1.27,1.27,1.27-.57,1.27-1.27-.57-1.27-1.27-1.27Z" fill="#2c3b5e"/><path d="M229.64,271.85c-.7,0-1.27.57-1.27,1.27s.57,1.27,1.27,1.27,1.27-.57,1.27-1.27-.57-1.27-1.27-1.27Z" fill="#2c3b5e"/><path d="M229.64,278.24c-.7,0-1.27.57-1.27,1.27s.57,1.27,1.27,1.27,1.27-.57,1.27-1.27-.57-1.27-1.27-1.27Z" fill="#2c3b5e"/><path d="M229.64,284.64c-.7,0-1.27.57-1.27,1.27s.57,1.27,1.27,1.27,1.27-.57,1.27-1.27-.57-1.27-1.27-1.27Z" fill="#2c3b5e"/><path d="M229.64,291.03c-.7,0-1.27.57-1.27,1.27s.57,1.27,1.27,1.27,1.27-.57,1.27-1.27-.57-1.27-1.27-1.27Z" fill="#2c3b5e"/><path d="M229.64,297.42c-.7,0-1.27.57-1.27,1.27s.57,1.27,1.27,1.27,1.27-.57,1.27-1.27-.57-1.27-1.27-1.27Z" fill="#2c3b5e"/><path d="M229.64,303.82c-.7,0-1.27.57-1.27,1.27s.57,1.27,1.27,1.27,1.27-.57,1.27-1.27-.57-1.27-1.27-1.27Z" fill="#2c3b5e"/><path d="M229.64,310.21c-.7,0-1.27.57-1.27,1.27s.57,1.27,1.27,1.27,1.27-.57,1.27-1.27-.57-1.27-1.27-1.27Z" fill="#2c3b5e"/><path d="M229.64,316.6c-.7,0-1.27.57-1.27,1.27s.57,1.27,1.27,1.27,1.27-.57,1.27-1.27-.57-1.27-1.27-1.27Z" fill="#2c3b5e"/><path d="M229.64,323c-.7,0-1.27.57-1.27,1.27s.57,1.27,1.27,1.27,1.27-.57,1.27-1.27-.57-1.27-1.27-1.27Z" fill="#2c3b5e"/><path d="M229.64,329.39c-.7,0-1.27.57-1.27,1.27s.57,1.27,1.27,1.27,1.27-.57,1.27-1.27-.57-1.27-1.27-1.27Z" fill="#2c3b5e"/><path d="M229.64,335.78c-.7,0-1.27.57-1.27,1.27s.57,1.27,1.27,1.27,1.27-.57,1.27-1.27-.57-1.27-1.27-1.27Z" fill="#2c3b5e"/><path d="M223.79,271.85c-.7,0-1.27.57-1.27,1.27s.57,1.27,1.27,1.27,1.27-.57,1.27-1.27-.57-1.27-1.27-1.27Z" fill="#2c3b5e"/><path d="M223.79,278.24c-.7,0-1.27.57-1.27,1.27s.57,1.27,1.27,1.27,1.27-.57,1.27-1.27-.57-1.27-1.27-1.27Z" fill="#2c3b5e"/><path d="M223.79,284.64c-.7,0-1.27.57-1.27,1.27s.57,1.27,1.27,1.27,1.27-.57,1.27-1.27-.57-1.27-1.27-1.27Z" fill="#2c3b5e"/><path d="M223.79,291.03c-.7,0-1.27.57-1.27,1.27s.57,1.27,1.27,1.27,1.27-.57,1.27-1.27-.57-1.27-1.27-1.27Z" fill="#2c3b5e"/><path d="M223.79,297.42c-.7,0-1.27.57-1.27,1.27s.57,1.27,1.27,1.27,1.27-.57,1.27-1.27-.57-1.27-1.27-1.27Z" fill="#2c3b5e"/><path d="M223.79,303.82c-.7,0-1.27.57-1.27,1.27s.57,1.27,1.27,1.27,1.27-.57,1.27-1.27-.57-1.27-1.27-1.27Z" fill="#2c3b5e"/><path d="M223.79,310.21c-.7,0-1.27.57-1.27,1.27s.57,1.27,1.27,1.27,1.27-.57,1.27-1.27-.57-1.27-1.27-1.27Z" fill="#2c3b5e"/><path d="M223.79,316.6c-.7,0-1.27.57-1.27,1.27s.57,1.27,1.27,1.27,1.27-.57,1.27-1.27-.57-1.27-1.27-1.27Z" fill="#2c3b5e"/><path d="M223.79,323c-.7,0-1.27.57-1.27,1.27s.57,1.27,1.27,1.27,1.27-.57,1.27-1.27-.57-1.27-1.27-1.27Z" fill="#2c3b5e"/><path d="M223.79,329.39c-.7,0-1.27.57-1.27,1.27s.57,1.27,1.27,1.27,1.27-.57,1.27-1.27-.57-1.27-1.27-1.27Z" fill="#2c3b5e"/><path d="M223.79,335.78c-.7,0-1.27.57-1.27,1.27s.57,1.27,1.27,1.27,1.27-.57,1.27-1.27-.57-1.27-1.27-1.27Z" fill="#2c3b5e"/><path d="M217.93,271.85c-.7,0-1.27.57-1.27,1.27s.57,1.27,1.27,1.27,1.27-.57,1.27-1.27-.57-1.27-1.27-1.27Z" fill="#2c3b5e"/><path d="M217.93,278.24c-.7,0-1.27.57-1.27,1.27s.57,1.27,1.27,1.27,1.27-.57,1.27-1.27-.57-1.27-1.27-1.27Z" fill="#2c3b5e"/><path d="M217.93,284.64c-.7,0-1.27.57-1.27,1.27s.57,1.27,1.27,1.27,1.27-.57,1.27-1.27-.57-1.27-1.27-1.27Z" fill="#2c3b5e"/><path d="M217.93,291.03c-.7,0-1.27.57-1.27,1.27s.57,1.27,1.27,1.27,1.27-.57,1.27-1.27-.57-1.27-1.27-1.27Z" fill="#2c3b5e"/><path d="M217.93,297.42c-.7,0-1.27.57-1.27,1.27s.57,1.27,1.27,1.27,1.27-.57,1.27-1.27-.57-1.27-1.27-1.27Z" fill="#2c3b5e"/><path d="M217.93,303.82c-.7,0-1.27.57-1.27,1.27s.57,1.27,1.27,1.27,1.27-.57,1.27-1.27-.57-1.27-1.27-1.27Z" fill="#2c3b5e"/><path d="M217.93,310.21c-.7,0-1.27.57-1.27,1.27s.57,1.27,1.27,1.27,1.27-.57,1.27-1.27-.57-1.27-1.27-1.27Z" fill="#2c3b5e"/><path d="M217.93,316.6c-.7,0-1.27.57-1.27,1.27s.57,1.27,1.27,1.27,1.27-.57,1.27-1.27-.57-1.27-1.27-1.27Z" fill="#2c3b5e"/><path d="M217.93,323c-.7,0-1.27.57-1.27,1.27s.57,1.27,1.27,1.27,1.27-.57,1.27-1.27-.57-1.27-1.27-1.27Z" fill="#2c3b5e"/><path d="M217.93,329.39c-.7,0-1.27.57-1.27,1.27s.57,1.27,1.27,1.27,1.27-.57,1.27-1.27-.57-1.27-1.27-1.27Z" fill="#2c3b5e"/><path d="M217.93,335.78c-.7,0-1.27.57-1.27,1.27s.57,1.27,1.27,1.27,1.27-.57,1.27-1.27-.57-1.27-1.27-1.27Z" fill="#2c3b5e"/><path d="M212.08,271.85c-.7,0-1.27.57-1.27,1.27s.57,1.27,1.27,1.27,1.27-.57,1.27-1.27-.57-1.27-1.27-1.27Z" fill="#2c3b5e"/><path d="M212.08,278.24c-.7,0-1.27.57-1.27,1.27s.57,1.27,1.27,1.27,1.27-.57,1.27-1.27-.57-1.27-1.27-1.27Z" fill="#2c3b5e"/><path d="M212.08,284.64c-.7,0-1.27.57-1.27,1.27s.57,1.27,1.27,1.27,1.27-.57,1.27-1.27-.57-1.27-1.27-1.27Z" fill="#2c3b5e"/><path d="M212.08,291.03c-.7,0-1.27.57-1.27,1.27s.57,1.27,1.27,1.27,1.27-.57,1.27-1.27-.57-1.27-1.27-1.27Z" fill="#2c3b5e"/><path d="M212.08,297.42c-.7,0-1.27.57-1.27,1.27s.57,1.27,1.27,1.27,1.27-.57,1.27-1.27-.57-1.27-1.27-1.27Z" fill="#2c3b5e"/><path d="M212.08,303.82c-.7,0-1.27.57-1.27,1.27s.57,1.27,1.27,1.27,1.27-.57,1.27-1.27-.57-1.27-1.27-1.27Z" fill="#2c3b5e"/><path d="M212.08,310.21c-.7,0-1.27.57-1.27,1.27s.57,1.27,1.27,1.27,1.27-.57,1.27-1.27-.57-1.27-1.27-1.27Z" fill="#2c3b5e"/><path d="M212.08,316.6c-.7,0-1.27.57-1.27,1.27s.57,1.27,1.27,1.27,1.27-.57,1.27-1.27-.57-1.27-1.27-1.27Z" fill="#2c3b5e"/><path d="M212.08,323c-.7,0-1.27.57-1.27,1.27s.57,1.27,1.27,1.27,1.27-.57,1.27-1.27-.57-1.27-1.27-1.27Z" fill="#2c3b5e"/><path d="M212.08,329.39c-.7,0-1.27.57-1.27,1.27s.57,1.27,1.27,1.27,1.27-.57,1.27-1.27-.57-1.27-1.27-1.27Z" fill="#2c3b5e"/><path d="M212.08,335.78c-.7,0-1.27.57-1.27,1.27s.57,1.27,1.27,1.27,1.27-.57,1.27-1.27-.57-1.27-1.27-1.27Z" fill="#2c3b5e"/><path d="M206.22,271.85c-.7,0-1.27.57-1.27,1.27s.57,1.27,1.27,1.27,1.27-.57,1.27-1.27-.57-1.27-1.27-1.27Z" fill="#2c3b5e"/><path d="M206.22,278.24c-.7,0-1.27.57-1.27,1.27s.57,1.27,1.27,1.27,1.27-.57,1.27-1.27-.57-1.27-1.27-1.27Z" fill="#2c3b5e"/><path d="M206.22,284.64c-.7,0-1.27.57-1.27,1.27s.57,1.27,1.27,1.27,1.27-.57,1.27-1.27-.57-1.27-1.27-1.27Z" fill="#2c3b5e"/><path d="M206.22,291.03c-.7,0-1.27.57-1.27,1.27s.57,1.27,1.27,1.27,1.27-.57,1.27-1.27-.57-1.27-1.27-1.27Z" fill="#2c3b5e"/><path d="M206.22,297.42c-.7,0-1.27.57-1.27,1.27s.57,1.27,1.27,1.27,1.27-.57,1.27-1.27-.57-1.27-1.27-1.27Z" fill="#2c3b5e"/><path d="M206.22,303.82c-.7,0-1.27.57-1.27,1.27s.57,1.27,1.27,1.27,1.27-.57,1.27-1.27-.57-1.27-1.27-1.27Z" fill="#2c3b5e"/><path d="M206.22,310.21c-.7,0-1.27.57-1.27,1.27s.57,1.27,1.27,1.27,1.27-.57,1.27-1.27-.57-1.27-1.27-1.27Z" fill="#2c3b5e"/><path d="M206.22,316.6c-.7,0-1.27.57-1.27,1.27s.57,1.27,1.27,1.27,1.27-.57,1.27-1.27-.57-1.27-1.27-1.27Z" fill="#2c3b5e"/><path d="M206.22,323c-.7,0-1.27.57-1.27,1.27s.57,1.27,1.27,1.27,1.27-.57,1.27-1.27-.57-1.27-1.27-1.27Z" fill="#2c3b5e"/><path d="M206.22,329.39c-.7,0-1.27.57-1.27,1.27s.57,1.27,1.27,1.27,1.27-.57,1.27-1.27-.57-1.27-1.27-1.27Z" fill="#2c3b5e"/><path d="M206.22,335.78c-.7,0-1.27.57-1.27,1.27s.57,1.27,1.27,1.27,1.27-.57,1.27-1.27-.57-1.27-1.27-1.27Z" fill="#2c3b5e"/><path d="M200.37,271.85c-.7,0-1.27.57-1.27,1.27s.57,1.27,1.27,1.27,1.27-.57,1.27-1.27-.57-1.27-1.27-1.27Z" fill="#2c3b5e"/><path d="M200.37,278.24c-.7,0-1.27.57-1.27,1.27s.57,1.27,1.27,1.27,1.27-.57,1.27-1.27-.57-1.27-1.27-1.27Z" fill="#2c3b5e"/><path d="M200.37,284.64c-.7,0-1.27.57-1.27,1.27s.57,1.27,1.27,1.27,1.27-.57,1.27-1.27-.57-1.27-1.27-1.27Z" fill="#2c3b5e"/><path d="M200.37,291.03c-.7,0-1.27.57-1.27,1.27s.57,1.27,1.27,1.27,1.27-.57,1.27-1.27-.57-1.27-1.27-1.27Z" fill="#2c3b5e"/><path d="M200.37,297.42c-.7,0-1.27.57-1.27,1.27s.57,1.27,1.27,1.27,1.27-.57,1.27-1.27-.57-1.27-1.27-1.27Z" fill="#2c3b5e"/><path d="M200.37,303.82c-.7,0-1.27.57-1.27,1.27s.57,1.27,1.27,1.27,1.27-.57,1.27-1.27-.57-1.27-1.27-1.27Z" fill="#2c3b5e"/><path d="M200.37,310.21c-.7,0-1.27.57-1.27,1.27s.57,1.27,1.27,1.27,1.27-.57,1.27-1.27-.57-1.27-1.27-1.27Z" fill="#2c3b5e"/><path d="M200.37,316.6c-.7,0-1.27.57-1.27,1.27s.57,1.27,1.27,1.27,1.27-.57,1.27-1.27-.57-1.27-1.27-1.27Z" fill="#2c3b5e"/><path d="M200.37,323c-.7,0-1.27.57-1.27,1.27s.57,1.27,1.27,1.27,1.27-.57,1.27-1.27-.57-1.27-1.27-1.27Z" fill="#2c3b5e"/><path d="M200.37,329.39c-.7,0-1.27.57-1.27,1.27s.57,1.27,1.27,1.27,1.27-.57,1.27-1.27-.57-1.27-1.27-1.27Z" fill="#2c3b5e"/><path d="M200.37,335.78c-.7,0-1.27.57-1.27,1.27s.57,1.27,1.27,1.27,1.27-.57,1.27-1.27-.57-1.27-1.27-1.27Z" fill="#2c3b5e"/><path d="M194.51,271.85c-.7,0-1.27.57-1.27,1.27s.57,1.27,1.27,1.27,1.27-.57,1.27-1.27-.57-1.27-1.27-1.27Z" fill="#2c3b5e"/><path d="M194.51,278.24c-.7,0-1.27.57-1.27,1.27s.57,1.27,1.27,1.27,1.27-.57,1.27-1.27-.57-1.27-1.27-1.27Z" fill="#2c3b5e"/><path d="M194.51,284.64c-.7,0-1.27.57-1.27,1.27s.57,1.27,1.27,1.27,1.27-.57,1.27-1.27-.57-1.27-1.27-1.27Z" fill="#2c3b5e"/><path d="M194.51,291.03c-.7,0-1.27.57-1.27,1.27s.57,1.27,1.27,1.27,1.27-.57,1.27-1.27-.57-1.27-1.27-1.27Z" fill="#2c3b5e"/><path d="M194.51,297.42c-.7,0-1.27.57-1.27,1.27s.57,1.27,1.27,1.27,1.27-.57,1.27-1.27-.57-1.27-1.27-1.27Z" fill="#2c3b5e"/><path d="M194.51,303.82c-.7,0-1.27.57-1.27,1.27s.57,1.27,1.27,1.27,1.27-.57,1.27-1.27-.57-1.27-1.27-1.27Z" fill="#2c3b5e"/><path d="M194.51,310.21c-.7,0-1.27.57-1.27,1.27s.57,1.27,1.27,1.27,1.27-.57,1.27-1.27-.57-1.27-1.27-1.27Z" fill="#2c3b5e"/><path d="M194.51,316.6c-.7,0-1.27.57-1.27,1.27s.57,1.27,1.27,1.27,1.27-.57,1.27-1.27-.57-1.27-1.27-1.27Z" fill="#2c3b5e"/><path d="M194.51,323c-.7,0-1.27.57-1.27,1.27s.57,1.27,1.27,1.27,1.27-.57,1.27-1.27-.57-1.27-1.27-1.27Z" fill="#2c3b5e"/><path d="M194.51,329.39c-.7,0-1.27.57-1.27,1.27s.57,1.27,1.27,1.27,1.27-.57,1.27-1.27-.57-1.27-1.27-1.27Z" fill="#2c3b5e"/><path d="M194.51,335.78c-.7,0-1.27.57-1.27,1.27s.57,1.27,1.27,1.27,1.27-.57,1.27-1.27-.57-1.27-1.27-1.27Z" fill="#2c3b5e"/><path d="M188.66,271.85c-.7,0-1.27.57-1.27,1.27s.57,1.27,1.27,1.27,1.27-.57,1.27-1.27-.57-1.27-1.27-1.27Z" fill="#2c3b5e"/><path d="M188.66,278.24c-.7,0-1.27.57-1.27,1.27s.57,1.27,1.27,1.27,1.27-.57,1.27-1.27-.57-1.27-1.27-1.27Z" fill="#2c3b5e"/><path d="M188.66,284.64c-.7,0-1.27.57-1.27,1.27s.57,1.27,1.27,1.27,1.27-.57,1.27-1.27-.57-1.27-1.27-1.27Z" fill="#2c3b5e"/><path d="M188.66,291.03c-.7,0-1.27.57-1.27,1.27s.57,1.27,1.27,1.27,1.27-.57,1.27-1.27-.57-1.27-1.27-1.27Z" fill="#2c3b5e"/><path d="M188.66,297.42c-.7,0-1.27.57-1.27,1.27s.57,1.27,1.27,1.27,1.27-.57,1.27-1.27-.57-1.27-1.27-1.27Z" fill="#2c3b5e"/><path d="M188.66,303.82c-.7,0-1.27.57-1.27,1.27s.57,1.27,1.27,1.27,1.27-.57,1.27-1.27-.57-1.27-1.27-1.27Z" fill="#2c3b5e"/><path d="M188.66,310.21c-.7,0-1.27.57-1.27,1.27s.57,1.27,1.27,1.27,1.27-.57,1.27-1.27-.57-1.27-1.27-1.27Z" fill="#2c3b5e"/><path d="M188.66,316.6c-.7,0-1.27.57-1.27,1.27s.57,1.27,1.27,1.27,1.27-.57,1.27-1.27-.57-1.27-1.27-1.27Z" fill="#2c3b5e"/><path d="M188.66,323c-.7,0-1.27.57-1.27,1.27s.57,1.27,1.27,1.27,1.27-.57,1.27-1.27-.57-1.27-1.27-1.27Z" fill="#2c3b5e"/><path d="M188.66,329.39c-.7,0-1.27.57-1.27,1.27s.57,1.27,1.27,1.27,1.27-.57,1.27-1.27-.57-1.27-1.27-1.27Z" fill="#2c3b5e"/><path d="M188.66,335.78c-.7,0-1.27.57-1.27,1.27s.57,1.27,1.27,1.27,1.27-.57,1.27-1.27-.57-1.27-1.27-1.27Z" fill="#2c3b5e"/><path d="M182.81,271.85c-.7,0-1.27.57-1.27,1.27s.57,1.27,1.27,1.27,1.27-.57,1.27-1.27-.57-1.27-1.27-1.27Z" fill="#2c3b5e"/><path d="M182.81,278.24c-.7,0-1.27.57-1.27,1.27s.57,1.27,1.27,1.27,1.27-.57,1.27-1.27-.57-1.27-1.27-1.27Z" fill="#2c3b5e"/><path d="M182.81,284.64c-.7,0-1.27.57-1.27,1.27s.57,1.27,1.27,1.27,1.27-.57,1.27-1.27-.57-1.27-1.27-1.27Z" fill="#2c3b5e"/><path d="M182.81,291.03c-.7,0-1.27.57-1.27,1.27s.57,1.27,1.27,1.27,1.27-.57,1.27-1.27-.57-1.27-1.27-1.27Z" fill="#2c3b5e"/><path d="M182.81,297.42c-.7,0-1.27.57-1.27,1.27s.57,1.27,1.27,1.27,1.27-.57,1.27-1.27-.57-1.27-1.27-1.27Z" fill="#2c3b5e"/><path d="M182.81,303.82c-.7,0-1.27.57-1.27,1.27s.57,1.27,1.27,1.27,1.27-.57,1.27-1.27-.57-1.27-1.27-1.27Z" fill="#2c3b5e"/><path d="M182.81,310.21c-.7,0-1.27.57-1.27,1.27s.57,1.27,1.27,1.27,1.27-.57,1.27-1.27-.57-1.27-1.27-1.27Z" fill="#2c3b5e"/><path d="M182.81,316.6c-.7,0-1.27.57-1.27,1.27s.57,1.27,1.27,1.27,1.27-.57,1.27-1.27-.57-1.27-1.27-1.27Z" fill="#2c3b5e"/><path d="M182.81,323c-.7,0-1.27.57-1.27,1.27s.57,1.27,1.27,1.27,1.27-.57,1.27-1.27-.57-1.27-1.27-1.27Z" fill="#2c3b5e"/><path d="M182.81,329.39c-.7,0-1.27.57-1.27,1.27s.57,1.27,1.27,1.27,1.27-.57,1.27-1.27-.57-1.27-1.27-1.27Z" fill="#2c3b5e"/><path d="M182.81,335.78c-.7,0-1.27.57-1.27,1.27s.57,1.27,1.27,1.27,1.27-.57,1.27-1.27-.57-1.27-1.27-1.27Z" fill="#2c3b5e"/><path d="M176.95,271.85c-.7,0-1.27.57-1.27,1.27s.57,1.27,1.27,1.27,1.27-.57,1.27-1.27-.57-1.27-1.27-1.27Z" fill="#2c3b5e"/><path d="M176.95,278.24c-.7,0-1.27.57-1.27,1.27s.57,1.27,1.27,1.27,1.27-.57,1.27-1.27-.57-1.27-1.27-1.27Z" fill="#2c3b5e"/><path d="M176.95,284.64c-.7,0-1.27.57-1.27,1.27s.57,1.27,1.27,1.27,1.27-.57,1.27-1.27-.57-1.27-1.27-1.27Z" fill="#2c3b5e"/><path d="M176.95,291.03c-.7,0-1.27.57-1.27,1.27s.57,1.27,1.27,1.27,1.27-.57,1.27-1.27-.57-1.27-1.27-1.27Z" fill="#2c3b5e"/><path d="M176.95,297.42c-.7,0-1.27.57-1.27,1.27s.57,1.27,1.27,1.27,1.27-.57,1.27-1.27-.57-1.27-1.27-1.27Z" fill="#2c3b5e"/><path d="M176.95,303.82c-.7,0-1.27.57-1.27,1.27s.57,1.27,1.27,1.27,1.27-.57,1.27-1.27-.57-1.27-1.27-1.27Z" fill="#2c3b5e"/><path d="M176.95,310.21c-.7,0-1.27.57-1.27,1.27s.57,1.27,1.27,1.27,1.27-.57,1.27-1.27-.57-1.27-1.27-1.27Z" fill="#2c3b5e"/><path d="M176.95,316.6c-.7,0-1.27.57-1.27,1.27s.57,1.27,1.27,1.27,1.27-.57,1.27-1.27-.57-1.27-1.27-1.27Z" fill="#2c3b5e"/><path d="M176.95,323c-.7,0-1.27.57-1.27,1.27s.57,1.27,1.27,1.27,1.27-.57,1.27-1.27-.57-1.27-1.27-1.27Z" fill="#2c3b5e"/><path d="M176.95,329.39c-.7,0-1.27.57-1.27,1.27s.57,1.27,1.27,1.27,1.27-.57,1.27-1.27-.57-1.27-1.27-1.27Z" fill="#2c3b5e"/><path d="M176.95,335.78c-.7,0-1.27.57-1.27,1.27s.57,1.27,1.27,1.27,1.27-.57,1.27-1.27-.57-1.27-1.27-1.27Z" fill="#2c3b5e"/><path d="M171.1,271.85c-.7,0-1.27.57-1.27,1.27s.57,1.27,1.27,1.27,1.27-.57,1.27-1.27-.57-1.27-1.27-1.27Z" fill="#2c3b5e"/><path d="M171.1,278.24c-.7,0-1.27.57-1.27,1.27s.57,1.27,1.27,1.27,1.27-.57,1.27-1.27-.57-1.27-1.27-1.27Z" fill="#2c3b5e"/><path d="M171.1,284.64c-.7,0-1.27.57-1.27,1.27s.57,1.27,1.27,1.27,1.27-.57,1.27-1.27-.57-1.27-1.27-1.27Z" fill="#2c3b5e"/><path d="M171.1,291.03c-.7,0-1.27.57-1.27,1.27s.57,1.27,1.27,1.27,1.27-.57,1.27-1.27-.57-1.27-1.27-1.27Z" fill="#2c3b5e"/><path d="M171.1,297.42c-.7,0-1.27.57-1.27,1.27s.57,1.27,1.27,1.27,1.27-.57,1.27-1.27-.57-1.27-1.27-1.27Z" fill="#2c3b5e"/><path d="M171.1,303.82c-.7,0-1.27.57-1.27,1.27s.57,1.27,1.27,1.27,1.27-.57,1.27-1.27-.57-1.27-1.27-1.27Z" fill="#2c3b5e"/><path d="M171.1,310.21c-.7,0-1.27.57-1.27,1.27s.57,1.27,1.27,1.27,1.27-.57,1.27-1.27-.57-1.27-1.27-1.27Z" fill="#2c3b5e"/><path d="M171.1,316.6c-.7,0-1.27.57-1.27,1.27s.57,1.27,1.27,1.27,1.27-.57,1.27-1.27-.57-1.27-1.27-1.27Z" fill="#2c3b5e"/><path d="M171.1,323c-.7,0-1.27.57-1.27,1.27s.57,1.27,1.27,1.27,1.27-.57,1.27-1.27-.57-1.27-1.27-1.27Z" fill="#2c3b5e"/><path d="M171.1,329.39c-.7,0-1.27.57-1.27,1.27s.57,1.27,1.27,1.27,1.27-.57,1.27-1.27-.57-1.27-1.27-1.27Z" fill="#2c3b5e"/><path d="M171.1,335.78c-.7,0-1.27.57-1.27,1.27s.57,1.27,1.27,1.27,1.27-.57,1.27-1.27-.57-1.27-1.27-1.27Z" fill="#2c3b5e"/><path d="M165.24,271.85c-.7,0-1.27.57-1.27,1.27s.57,1.27,1.27,1.27,1.27-.57,1.27-1.27-.57-1.27-1.27-1.27Z" fill="#2c3b5e"/><path d="M165.24,278.24c-.7,0-1.27.57-1.27,1.27s.57,1.27,1.27,1.27,1.27-.57,1.27-1.27-.57-1.27-1.27-1.27Z" fill="#2c3b5e"/><path d="M165.24,284.64c-.7,0-1.27.57-1.27,1.27s.57,1.27,1.27,1.27,1.27-.57,1.27-1.27-.57-1.27-1.27-1.27Z" fill="#2c3b5e"/><path d="M165.24,291.03c-.7,0-1.27.57-1.27,1.27s.57,1.27,1.27,1.27,1.27-.57,1.27-1.27-.57-1.27-1.27-1.27Z" fill="#2c3b5e"/><path d="M165.24,297.42c-.7,0-1.27.57-1.27,1.27s.57,1.27,1.27,1.27,1.27-.57,1.27-1.27-.57-1.27-1.27-1.27Z" fill="#2c3b5e"/><path d="M165.24,303.82c-.7,0-1.27.57-1.27,1.27s.57,1.27,1.27,1.27,1.27-.57,1.27-1.27-.57-1.27-1.27-1.27Z" fill="#2c3b5e"/><path d="M165.24,310.21c-.7,0-1.27.57-1.27,1.27s.57,1.27,1.27,1.27,1.27-.57,1.27-1.27-.57-1.27-1.27-1.27Z" fill="#2c3b5e"/><path d="M165.24,316.6c-.7,0-1.27.57-1.27,1.27s.57,1.27,1.27,1.27,1.27-.57,1.27-1.27-.57-1.27-1.27-1.27Z" fill="#2c3b5e"/><path d="M165.24,323c-.7,0-1.27.57-1.27,1.27s.57,1.27,1.27,1.27,1.27-.57,1.27-1.27-.57-1.27-1.27-1.27Z" fill="#2c3b5e"/><path d="M165.24,329.39c-.7,0-1.27.57-1.27,1.27s.57,1.27,1.27,1.27,1.27-.57,1.27-1.27-.57-1.27-1.27-1.27Z" fill="#2c3b5e"/><path d="M165.24,335.78c-.7,0-1.27.57-1.27,1.27s.57,1.27,1.27,1.27,1.27-.57,1.27-1.27-.57-1.27-1.27-1.27Z" fill="#2c3b5e"/><path d="M159.39,271.85c-.7,0-1.27.57-1.27,1.27s.57,1.27,1.27,1.27,1.27-.57,1.27-1.27-.57-1.27-1.27-1.27Z" fill="#2c3b5e"/><path d="M159.39,278.24c-.7,0-1.27.57-1.27,1.27s.57,1.27,1.27,1.27,1.27-.57,1.27-1.27-.57-1.27-1.27-1.27Z" fill="#2c3b5e"/><path d="M159.39,284.64c-.7,0-1.27.57-1.27,1.27s.57,1.27,1.27,1.27,1.27-.57,1.27-1.27-.57-1.27-1.27-1.27Z" fill="#2c3b5e"/><path d="M159.39,291.03c-.7,0-1.27.57-1.27,1.27s.57,1.27,1.27,1.27,1.27-.57,1.27-1.27-.57-1.27-1.27-1.27Z" fill="#2c3b5e"/><path d="M159.39,297.42c-.7,0-1.27.57-1.27,1.27s.57,1.27,1.27,1.27,1.27-.57,1.27-1.27-.57-1.27-1.27-1.27Z" fill="#2c3b5e"/><path d="M159.39,303.82c-.7,0-1.27.57-1.27,1.27s.57,1.27,1.27,1.27,1.27-.57,1.27-1.27-.57-1.27-1.27-1.27Z" fill="#2c3b5e"/><path d="M159.39,310.21c-.7,0-1.27.57-1.27,1.27s.57,1.27,1.27,1.27,1.27-.57,1.27-1.27-.57-1.27-1.27-1.27Z" fill="#2c3b5e"/><path d="M159.39,316.6c-.7,0-1.27.57-1.27,1.27s.57,1.27,1.27,1.27,1.27-.57,1.27-1.27-.57-1.27-1.27-1.27Z" fill="#2c3b5e"/><path d="M159.39,323c-.7,0-1.27.57-1.27,1.27s.57,1.27,1.27,1.27,1.27-.57,1.27-1.27-.57-1.27-1.27-1.27Z" fill="#2c3b5e"/><path d="M153.53,271.85c-.7,0-1.27.57-1.27,1.27s.57,1.27,1.27,1.27,1.27-.57,1.27-1.27-.57-1.27-1.27-1.27Z" fill="#2c3b5e"/><path d="M153.53,278.24c-.7,0-1.27.57-1.27,1.27s.57,1.27,1.27,1.27,1.27-.57,1.27-1.27-.57-1.27-1.27-1.27Z" fill="#2c3b5e"/><path d="M153.53,284.64c-.7,0-1.27.57-1.27,1.27s.57,1.27,1.27,1.27,1.27-.57,1.27-1.27-.57-1.27-1.27-1.27Z" fill="#2c3b5e"/><path d="M153.53,291.03c-.7,0-1.27.57-1.27,1.27s.57,1.27,1.27,1.27,1.27-.57,1.27-1.27-.57-1.27-1.27-1.27Z" fill="#2c3b5e"/><path d="M153.53,297.42c-.7,0-1.27.57-1.27,1.27s.57,1.27,1.27,1.27,1.27-.57,1.27-1.27-.57-1.27-1.27-1.27Z" fill="#2c3b5e"/><path d="M153.53,303.82c-.7,0-1.27.57-1.27,1.27s.57,1.27,1.27,1.27,1.27-.57,1.27-1.27-.57-1.27-1.27-1.27Z" fill="#2c3b5e"/><path d="M153.53,310.21c-.7,0-1.27.57-1.27,1.27s.57,1.27,1.27,1.27,1.27-.57,1.27-1.27-.57-1.27-1.27-1.27Z" fill="#2c3b5e"/><path d="M147.68,271.85c-.7,0-1.27.57-1.27,1.27s.57,1.27,1.27,1.27,1.27-.57,1.27-1.27-.57-1.27-1.27-1.27Z" fill="#2c3b5e"/><path d="M147.68,278.24c-.7,0-1.27.57-1.27,1.27s.57,1.27,1.27,1.27,1.27-.57,1.27-1.27-.57-1.27-1.27-1.27Z" fill="#2c3b5e"/><path d="M147.68,284.64c-.7,0-1.27.57-1.27,1.27s.57,1.27,1.27,1.27,1.27-.57,1.27-1.27-.57-1.27-1.27-1.27Z" fill="#2c3b5e"/><path d="M147.68,291.03c-.7,0-1.27.57-1.27,1.27s.57,1.27,1.27,1.27,1.27-.57,1.27-1.27-.57-1.27-1.27-1.27Z" fill="#2c3b5e"/><path d="M147.68,297.42c-.7,0-1.27.57-1.27,1.27s.57,1.27,1.27,1.27,1.27-.57,1.27-1.27-.57-1.27-1.27-1.27Z" fill="#2c3b5e"/><path d="M141.83,271.85c-.7,0-1.27.57-1.27,1.27s.57,1.27,1.27,1.27,1.27-.57,1.27-1.27-.57-1.27-1.27-1.27Z" fill="#2c3b5e"/><path d="M141.83,278.24c-.7,0-1.27.57-1.27,1.27s.57,1.27,1.27,1.27,1.27-.57,1.27-1.27-.57-1.27-1.27-1.27Z" fill="#2c3b5e"/><path d="M235.49,271.85c-.7,0-1.27.57-1.27,1.27s.57,1.27,1.27,1.27,1.27-.57,1.27-1.27-.57-1.27-1.27-1.27Z" fill="#2c3b5e"/><path d="M235.49,278.24c-.7,0-1.27.57-1.27,1.27s.57,1.27,1.27,1.27,1.27-.57,1.27-1.27-.57-1.27-1.27-1.27Z" fill="#2c3b5e"/><path d="M235.49,284.64c-.7,0-1.27.57-1.27,1.27s.57,1.27,1.27,1.27,1.27-.57,1.27-1.27-.57-1.27-1.27-1.27Z" fill="#2c3b5e"/><path d="M235.49,291.03c-.7,0-1.27.57-1.27,1.27s.57,1.27,1.27,1.27,1.27-.57,1.27-1.27-.57-1.27-1.27-1.27Z" fill="#2c3b5e"/><path d="M235.49,297.42c-.7,0-1.27.57-1.27,1.27s.57,1.27,1.27,1.27,1.27-.57,1.27-1.27-.57-1.27-1.27-1.27Z" fill="#2c3b5e"/><path d="M235.49,303.82c-.7,0-1.27.57-1.27,1.27s.57,1.27,1.27,1.27,1.27-.57,1.27-1.27-.57-1.27-1.27-1.27Z" fill="#2c3b5e"/><path d="M235.49,310.21c-.7,0-1.27.57-1.27,1.27s.57,1.27,1.27,1.27,1.27-.57,1.27-1.27-.57-1.27-1.27-1.27Z" fill="#2c3b5e"/><path d="M235.49,316.6c-.7,0-1.27.57-1.27,1.27s.57,1.27,1.27,1.27,1.27-.57,1.27-1.27-.57-1.27-1.27-1.27Z" fill="#2c3b5e"/><path d="M235.49,323c-.7,0-1.27.57-1.27,1.27s.57,1.27,1.27,1.27,1.27-.57,1.27-1.27-.57-1.27-1.27-1.27Z" fill="#2c3b5e"/><path d="M235.49,329.39c-.7,0-1.27.57-1.27,1.27s.57,1.27,1.27,1.27,1.27-.57,1.27-1.27-.57-1.27-1.27-1.27Z" fill="#2c3b5e"/><path d="M235.49,335.78c-.7,0-1.27.57-1.27,1.27s.57,1.27,1.27,1.27,1.27-.57,1.27-1.27-.57-1.27-1.27-1.27Z" fill="#2c3b5e"/><path d="M264.13,329.39c-.7,0-1.27.57-1.27,1.27s.57,1.27,1.27,1.27,1.27-.57,1.27-1.27-.57-1.27-1.27-1.27Z" fill="#2c3b5e"/><path d="M264.13,335.78c-.7,0-1.27.57-1.27,1.27s.57,1.27,1.27,1.27,1.27-.57,1.27-1.27-.57-1.27-1.27-1.27Z" fill="#2c3b5e"/><path d="M258.27,316.6c-.7,0-1.27.57-1.27,1.27s.57,1.27,1.27,1.27,1.27-.57,1.27-1.27-.57-1.27-1.27-1.27Z" fill="#2c3b5e"/><path d="M258.27,323c-.7,0-1.27.57-1.27,1.27s.57,1.27,1.27,1.27,1.27-.57,1.27-1.27-.57-1.27-1.27-1.27Z" fill="#2c3b5e"/><path d="M258.27,329.39c-.7,0-1.27.57-1.27,1.27s.57,1.27,1.27,1.27,1.27-.57,1.27-1.27-.57-1.27-1.27-1.27Z" fill="#2c3b5e"/><path d="M258.27,335.78c-.7,0-1.27.57-1.27,1.27s.57,1.27,1.27,1.27,1.27-.57,1.27-1.27-.57-1.27-1.27-1.27Z" fill="#2c3b5e"/><path d="M252.42,297.42c-.7,0-1.27.57-1.27,1.27s.57,1.27,1.27,1.27,1.27-.57,1.27-1.27-.57-1.27-1.27-1.27Z" fill="#2c3b5e"/><path d="M252.42,303.82c-.7,0-1.27.57-1.27,1.27s.57,1.27,1.27,1.27,1.27-.57,1.27-1.27-.57-1.27-1.27-1.27Z" fill="#2c3b5e"/><path d="M252.42,310.21c-.7,0-1.27.57-1.27,1.27s.57,1.27,1.27,1.27,1.27-.57,1.27-1.27-.57-1.27-1.27-1.27Z" fill="#2c3b5e"/><path d="M252.42,316.6c-.7,0-1.27.57-1.27,1.27s.57,1.27,1.27,1.27,1.27-.57,1.27-1.27-.57-1.27-1.27-1.27Z" fill="#2c3b5e"/><path d="M252.42,323c-.7,0-1.27.57-1.27,1.27s.57,1.27,1.27,1.27,1.27-.57,1.27-1.27-.57-1.27-1.27-1.27Z" fill="#2c3b5e"/><path d="M252.42,329.39c-.7,0-1.27.57-1.27,1.27s.57,1.27,1.27,1.27,1.27-.57,1.27-1.27-.57-1.27-1.27-1.27Z" fill="#2c3b5e"/><path d="M252.42,335.78c-.7,0-1.27.57-1.27,1.27s.57,1.27,1.27,1.27,1.27-.57,1.27-1.27-.57-1.27-1.27-1.27Z" fill="#2c3b5e"/><path d="M246.57,284.64c-.7,0-1.27.57-1.27,1.27s.57,1.27,1.27,1.27,1.27-.57,1.27-1.27-.57-1.27-1.27-1.27Z" fill="#2c3b5e"/><path d="M246.57,291.03c-.7,0-1.27.57-1.27,1.27s.57,1.27,1.27,1.27,1.27-.57,1.27-1.27-.57-1.27-1.27-1.27Z" fill="#2c3b5e"/><path d="M246.57,297.42c-.7,0-1.27.57-1.27,1.27s.57,1.27,1.27,1.27,1.27-.57,1.27-1.27-.57-1.27-1.27-1.27Z" fill="#2c3b5e"/><path d="M246.57,303.82c-.7,0-1.27.57-1.27,1.27s.57,1.27,1.27,1.27,1.27-.57,1.27-1.27-.57-1.27-1.27-1.27Z" fill="#2c3b5e"/><path d="M246.57,310.21c-.7,0-1.27.57-1.27,1.27s.57,1.27,1.27,1.27,1.27-.57,1.27-1.27-.57-1.27-1.27-1.27Z" fill="#2c3b5e"/><path d="M246.57,316.6c-.7,0-1.27.57-1.27,1.27s.57,1.27,1.27,1.27,1.27-.57,1.27-1.27-.57-1.27-1.27-1.27Z" fill="#2c3b5e"/><path d="M246.57,323c-.7,0-1.27.57-1.27,1.27s.57,1.27,1.27,1.27,1.27-.57,1.27-1.27-.57-1.27-1.27-1.27Z" fill="#2c3b5e"/><path d="M246.57,329.39c-.7,0-1.27.57-1.27,1.27s.57,1.27,1.27,1.27,1.27-.57,1.27-1.27-.57-1.27-1.27-1.27Z" fill="#2c3b5e"/><path d="M246.57,335.78c-.7,0-1.27.57-1.27,1.27s.57,1.27,1.27,1.27,1.27-.57,1.27-1.27-.57-1.27-1.27-1.27Z" fill="#2c3b5e"/></g></svg>